<svg width="745" height="689" viewBox="0 0 745 689" fill="none" xmlns="http://www.w3.org/2000/svg">
<g clip-path="url(#clip0_143_651)">
<path fill-rule="evenodd" clip-rule="evenodd" d="M348.5 11.4999C468.413 7.25548 565.246 51.9222 639 145.5C705.99 240.123 721.657 342.79 686 453.5C649.167 553 581 621.167 481.5 658C372.809 692.976 271.476 678.309 177.5 614C83.6375 542.429 37.8041 447.263 40.0001 328.5C46.2029 231.262 86.0362 151.096 159.5 87.9999C214.559 43.1456 277.559 17.6456 348.5 11.4999Z" fill="#131414"/>
<path fill-rule="evenodd" clip-rule="evenodd" d="M355.5 21.4999C473.445 19.3926 567.279 65.3926 637 159.5C693.747 244.989 708.414 337.322 681 436.5C650.432 531.732 589.599 599.898 498.5 641C389.169 683.766 285.503 673.1 187.5 609C93.2439 539.313 47.4106 445.479 50.0004 327.5C57.0576 224.858 101.557 143.024 183.5 81.9999C235.08 45.4179 292.414 25.2513 355.5 21.4999Z" fill="#FBFBFB"/>
<path fill-rule="evenodd" clip-rule="evenodd" d="M304.5 48.5C305.222 48.9175 305.722 49.5842 306 50.5C306.667 54.1667 306.667 57.8333 306 61.5C302.7 63.3024 299.533 65.3024 296.5 67.5C303.575 73.6554 306.075 81.322 304 90.5C303.535 91.9308 302.701 93.0975 301.5 94C298.134 95.5664 294.634 96.733 291 97.5C288.594 97.2971 286.594 96.2971 285 94.5C284.345 100.474 281.679 101.807 277 98.5C275.035 102.444 272.035 103.444 268 101.5C267.426 103.492 266.259 104.992 264.5 106C257.984 108.954 252.484 107.787 248 102.5C243.941 93.3811 239.108 84.7144 233.5 76.5C235.088 72.5899 237.421 69.2565 240.5 66.5C244.896 75.6257 249.563 84.6257 254.5 93.5C256.335 94.1916 258.168 93.8583 260 92.5C260.497 90.1902 260.663 87.8568 260.5 85.5C261.552 85.3505 262.552 85.5172 263.5 86C265.556 91.2457 267.89 91.5791 270.5 87C269.852 85.5603 269.519 84.0603 269.5 82.5C272.745 82.2934 274.745 83.7934 275.5 87C276.448 87.4828 277.448 87.6495 278.5 87.5C278.5 84.8333 278.5 82.1667 278.5 79.5C279.552 79.3505 280.552 79.5172 281.5 80C282.68 81.8961 284.18 83.3961 286 84.5C289.408 83.6494 292.741 82.6494 296 81.5C296.163 79.6133 295.329 78.1133 293.5 77C286.34 74.8561 283.006 70.0227 283.5 62.5C290.357 57.575 297.357 52.9084 304.5 48.5Z" fill="#060606"/>
<path fill-rule="evenodd" clip-rule="evenodd" d="M366.5 63.5C367.117 63.6107 367.617 63.944 368 64.5C370.548 72.6292 369.381 80.1292 364.5 87C361.503 87.7554 359.003 86.9221 357 84.5C353.667 88.5 350.333 88.5 347 84.5C345.682 87.9414 343.182 89.2747 339.5 88.5C339.745 94.4554 338.412 99.9554 335.5 105C330.882 105.994 326.215 106.494 321.5 106.5C321.351 105.448 321.517 104.448 322 103.5C326.035 99.7998 329.702 95.7998 333 91.5C334.018 87.3259 332.518 84.3259 328.5 82.5C327.027 78.1438 327.694 74.1438 330.5 70.5C333.576 74.5407 337.576 76.0407 342.5 75C344.016 73.103 344.683 70.9363 344.5 68.5C345.552 68.3505 346.552 68.5172 347.5 69C350.884 76.4887 353.384 76.322 355 68.5C356.011 67.6634 357.178 67.33 358.5 67.5C358.373 72.3731 360.706 74.3731 365.5 73.5C365.523 71.4004 364.856 69.5671 363.5 68C364.315 66.3566 365.315 64.8566 366.5 63.5Z" fill="#050505"/>
<path fill-rule="evenodd" clip-rule="evenodd" d="M485.5 63.5C488.246 63.9276 489.913 65.5943 490.5 68.5C488.51 69.4981 486.51 70.4981 484.5 71.5C480.264 67.8853 480.597 65.2187 485.5 63.5Z" fill="#111111"/>
<path fill-rule="evenodd" clip-rule="evenodd" d="M399.5 65.4998C404.133 64.458 407.299 66.1247 409 70.4998C410.483 82.2788 408.316 93.2788 402.5 103.5C397.533 104.662 392.533 104.829 387.5 104C386.273 102.413 386.606 101.079 388.5 99.9998C393.723 97.5623 398.39 94.3957 402.5 90.4998C399.407 89.6395 396.573 88.3062 394 86.4998C392.566 78.5644 394.4 71.5644 399.5 65.4998Z" fill="#070707"/>
<path fill-rule="evenodd" clip-rule="evenodd" d="M506.5 71.4996C507.978 71.2376 509.311 71.5709 510.5 72.4996C505.447 81.591 501.281 90.9243 498 100.5C499.085 101.293 500.252 101.96 501.5 102.5C503.65 100.851 505.65 99.0172 507.5 96.9996C511.909 95.7378 515.743 96.5711 519 99.4996C519.333 103.5 519.667 107.5 520 111.5C521.954 113.225 524.121 114.558 526.5 115.5C528.959 113.697 531.626 112.363 534.5 111.5C533.865 114.493 533.699 117.493 534 120.5C539.168 125.163 545.001 128.329 551.5 130C550.084 127.165 548.417 124.498 546.5 122C544.19 121.503 541.857 121.337 539.5 121.5C539.33 120.178 539.663 119.011 540.5 118C546.613 113.252 552.446 113.418 558 118.5C559.786 125.04 562.619 131.04 566.5 136.5C562.447 141.385 557.78 142.218 552.5 139C546.833 138.667 541.167 138.333 535.5 138C529.509 136.184 525.509 132.35 523.5 126.5C516.528 128.363 512.695 125.696 512 118.5C505.464 122.011 501.464 120.011 500 112.5C495.281 115.327 490.947 114.66 487 110.5C485.517 107.298 485.183 103.964 486 100.5C490.633 92.2752 494.3 83.6085 497 74.4996C500.313 73.6798 503.479 72.6798 506.5 71.4996Z" fill="#050505"/>
<path fill-rule="evenodd" clip-rule="evenodd" d="M399.5 75.5002C401.681 75.2839 403.347 76.1172 404.5 78.0002C402.833 78.6669 401.167 78.6669 399.5 78.0002C398.402 77.2305 398.402 76.3972 399.5 75.5002Z" fill="#E2E2E2"/>
<path fill-rule="evenodd" clip-rule="evenodd" d="M482.5 77.5C483.5 77.5 484.5 77.5 485.5 77.5C486.391 88.3518 482.724 97.1852 474.5 104C471.442 104.458 468.442 104.124 465.5 103C462.786 96.1445 457.786 93.1445 450.5 94C453.352 95.5909 456.352 96.9242 459.5 98C461.197 107 457.363 112.167 448 113.5C426.94 112.051 421.607 102.051 432 83.5C433.11 81.9632 434.61 81.2965 436.5 81.5C435.063 86.0523 434.563 90.7189 435 95.5C441.293 101.765 448.793 104.098 457.5 102.5C453.618 100.929 449.785 99.2622 446 97.5C444.462 92.8795 445.962 89.7129 450.5 88C454.167 87.3333 457.833 87.3333 461.5 88C466.873 89.178 472.207 90.3446 477.5 91.5C477.145 88.9333 476.479 86.4333 475.5 84C477.708 81.6223 480.042 79.4557 482.5 77.5Z" fill="#080808"/>
<path fill-rule="evenodd" clip-rule="evenodd" d="M221.5 86.5C223.5 86.8333 225.5 87.1667 227.5 87.5C228.082 92.5251 226.082 94.1917 221.5 92.5C220.306 90.4844 220.306 88.4844 221.5 86.5Z" fill="#070707"/>
<path fill-rule="evenodd" clip-rule="evenodd" d="M231.5 98.5C235.589 99.4119 239.089 101.412 242 104.5C245.194 109.554 247.861 114.888 250 120.5C250.667 123.5 250.667 126.5 250 129.5C246.245 131.628 242.412 133.628 238.5 135.5C237.28 135.113 236.613 134.28 236.5 133C238.6 127.533 240.6 122.033 242.5 116.5C242.471 114.971 241.804 113.804 240.5 113C233.474 110.872 230.474 106.038 231.5 98.5Z" fill="#0A0A0A"/>
<path fill-rule="evenodd" clip-rule="evenodd" d="M537.5 96.5C540.084 97.0483 541.084 98.715 540.5 101.5C545.537 99.1929 547.871 100.86 547.5 106.5C545.5 106.5 543.5 106.5 541.5 106.5C541.67 105.178 541.337 104.011 540.5 103C536.534 103.143 534.534 101.309 534.5 97.5C535.791 97.7373 536.791 97.404 537.5 96.5Z" fill="#161616"/>
<path fill-rule="evenodd" clip-rule="evenodd" d="M202.5 104.5C208.624 103.231 213.291 105.231 216.5 110.5C212.277 111.291 208.777 113.291 206 116.5C205.51 117.793 205.343 119.127 205.5 120.5C208.691 119.908 211.691 118.741 214.5 117C217.85 116.07 220.683 116.903 223 119.5C231.912 131.789 229.745 141.622 216.5 149C211.314 151.226 206.314 150.893 201.5 148C195.45 143.038 191.616 136.871 190 129.5C190.718 128.549 191.551 128.383 192.5 129C194.598 131.854 196.931 134.521 199.5 137C200.873 137.875 202.373 138.375 204 138.5C211.109 136.362 216.942 132.362 221.5 126.5C221 126.167 220.5 125.833 220 125.5C216.396 127.034 212.73 128.368 209 129.5C207.105 129.385 205.438 128.718 204 127.5C201.415 122.828 199.915 117.828 199.5 112.5C199.4 109.376 200.4 106.71 202.5 104.5Z" fill="#070707"/>
<path fill-rule="evenodd" clip-rule="evenodd" d="M512.5 103.5C513.725 104.152 514.392 105.319 514.5 107C514.873 109.617 513.873 111.45 511.5 112.5C510.119 112 509.453 111 509.5 109.5C509.984 107.199 510.984 105.199 512.5 103.5Z" fill="#EBEBEB"/>
<path fill-rule="evenodd" clip-rule="evenodd" d="M565.5 106.5C566.833 106.5 568.167 106.5 569.5 106.5C569.5 108.833 569.5 111.167 569.5 113.5C567.167 113.5 564.833 113.5 562.5 113.5C562.5 111.5 562.5 109.5 562.5 107.5C563.791 107.737 564.791 107.404 565.5 106.5Z" fill="#0A0A0A"/>
<path fill-rule="evenodd" clip-rule="evenodd" d="M356.5 119.5C453.654 116.483 527.821 155.816 579 237.5C615.651 306.57 618.984 377.237 589 449.5C551.021 527.767 488.854 573.267 402.5 586C310.141 593.228 236.641 559.728 182 485.5C136.298 413.811 129.298 338.477 161 259.5C200.71 177.386 265.876 130.719 356.5 119.5Z" fill="#131414"/>
<path fill-rule="evenodd" clip-rule="evenodd" d="M572.5 170.5C572.5 168.833 572.5 167.167 572.5 165.5C570.833 165.5 569.167 165.5 567.5 165.5C560.414 161.677 558.914 156.344 563 149.5C569.74 143.43 575.74 136.763 581 129.5C582.299 128.02 583.966 127.354 586 127.5C589.707 127.752 593.207 128.585 596.5 130C588.931 137.401 581.597 144.901 574.5 152.5C576.98 157.099 580.313 157.766 584.5 154.5C585.167 154.833 585.833 155.167 586.5 155.5C585.46 157.523 584.46 159.523 583.5 161.5C583.608 162.442 583.941 163.275 584.5 164C587.438 163.554 590.438 163.054 593.5 162.5C592.977 165.028 591.977 167.361 590.5 169.5C590.608 170.442 590.941 171.275 591.5 172C594.636 169.909 598.302 168.743 602.5 168.5C601.909 171.614 600.242 174.114 597.5 176C593.302 178.514 588.802 180.347 584 181.5C582.289 181.561 580.956 180.894 580 179.5C579.667 177.167 579.333 174.833 579 172.5C576.14 174.077 573.973 173.41 572.5 170.5Z" fill="#050505"/>
<path fill-rule="evenodd" clip-rule="evenodd" d="M355.5 129.5C449.829 125.905 521.663 163.905 571 243.5C605.691 309.39 608.691 376.724 580 445.5C541.936 523.191 479.77 567.024 393.5 577C299.975 580.496 228.809 542.663 180 463.5C145.789 398.359 142.456 331.692 170 263.5C198.593 201.906 245.093 160.406 309.5 139C324.774 134.849 340.107 131.682 355.5 129.5Z" fill="#FEFEFD"/>
<path fill-rule="evenodd" clip-rule="evenodd" d="M165.5 140.5C168.196 142.851 170.196 145.851 171.5 149.5C170.139 151.028 168.972 152.695 168 154.5C168.895 163.479 166.395 171.312 160.5 178C158.285 179.044 155.952 179.71 153.5 180C154.736 186.125 152.069 189.458 145.5 190C147.589 196.263 145.255 199.597 138.5 200C140.671 209.794 136.671 214.961 126.5 215.5C131.793 221.079 131.793 226.579 126.5 232C121.06 233.174 116.06 232.174 111.5 229C109.671 227.887 108.837 226.387 109 224.5C111.432 224.523 113.932 224.19 116.5 223.5C119.04 220.961 119.874 217.961 119 214.5C114.233 213.548 109.4 212.715 104.5 212C103.167 209 101.833 206 100.5 203C108.137 203.823 115.804 204.49 123.5 205C125.249 202.914 126.583 200.581 127.5 198C126.392 195.888 124.892 194.054 123 192.5C122.399 191.035 122.899 190.035 124.5 189.5C128.93 192.726 132.263 191.893 134.5 187C133.015 184.844 131.515 182.677 130 180.5C128.622 176.102 129.788 172.602 133.5 170C138.532 170.257 143.532 170.09 148.5 169.5C152.56 165.708 155.893 161.374 158.5 156.5C154.93 155.743 151.764 156.743 149 159.5C148.506 161.134 148.34 162.801 148.5 164.5C146.089 164.863 144.589 163.863 144 161.5C142.595 157.928 142.262 154.261 143 150.5C144.214 148.951 145.714 147.785 147.5 147C151.943 146.472 156.277 145.472 160.5 144C162.584 143.303 164.251 142.136 165.5 140.5Z" fill="#040404"/>
<path fill-rule="evenodd" clip-rule="evenodd" d="M567.5 165.5C569.167 165.5 570.833 165.5 572.5 165.5C572.5 167.167 572.5 168.833 572.5 170.5C571.566 169.432 571.232 168.099 571.5 166.5C569.901 166.768 568.568 166.434 567.5 165.5Z" fill="#909090"/>
<path fill-rule="evenodd" clip-rule="evenodd" d="M137.5 174.5C142.494 173.813 145.494 175.813 146.5 180.5C141.506 181.187 138.506 179.187 137.5 174.5Z" fill="#DFDFDF"/>
<path fill-rule="evenodd" clip-rule="evenodd" d="M612.5 191.5C614.604 191.201 616.604 191.534 618.5 192.5C616.823 194.676 614.989 196.676 613 198.5C613.135 207.695 616.635 215.529 623.5 222C627.067 224.453 630.733 226.62 634.5 228.5C632.977 230.283 630.977 230.949 628.5 230.5C629.695 235.222 631.695 239.555 634.5 243.5C637.595 239.648 639.928 235.315 641.5 230.5C645.364 228.829 649.364 228.329 653.5 229C656.879 233.59 660.379 238.09 664 242.5C666.06 245.286 667.56 248.286 668.5 251.5C664.738 251.652 661.072 252.319 657.5 253.5C654.104 249.721 650.937 245.721 648 241.5C642.844 249.994 635.344 253.494 625.5 252C618.707 247.248 615.541 240.748 616 232.5C616.374 231.584 616.874 230.75 617.5 230C607.065 225.233 600.731 217.233 598.5 206C600.618 198.715 605.285 193.882 612.5 191.5Z" fill="#050505"/>
<path fill-rule="evenodd" clip-rule="evenodd" d="M155.5 205.5C154.448 207.256 152.781 207.923 150.5 207.5C149.962 205.883 149.629 204.216 149.5 202.5C152.32 202.087 154.32 203.087 155.5 205.5Z" fill="#050505"/>
<path fill-rule="evenodd" clip-rule="evenodd" d="M628.5 196.5C632.648 196.834 634.315 199.167 633.5 203.5C635.635 203.147 636.968 203.98 637.5 206C637 207.5 636.5 209 636 210.5C634.667 209.833 633.333 209.167 632 208.5C631.798 206.744 631.298 205.078 630.5 203.5C629.098 203.135 628.098 202.301 627.5 201C628.148 199.56 628.481 198.06 628.5 196.5Z" fill="#0F0F0F"/>
<path fill-rule="evenodd" clip-rule="evenodd" d="M155.5 205.5C156.404 206.209 156.737 207.209 156.5 208.5C154.833 208.5 153.167 208.5 151.5 208.5C149.5 208.5 147.5 208.5 145.5 208.5C146.919 207.549 148.585 207.216 150.5 207.5C152.781 207.923 154.448 207.256 155.5 205.5Z" fill="#9B9B9B"/>
<path fill-rule="evenodd" clip-rule="evenodd" d="M145.5 208.5C147.5 208.5 149.5 208.5 151.5 208.5C152.234 209.708 152.567 211.041 152.5 212.5C150.856 212.286 149.356 212.62 148 213.5C147.153 211.807 146.32 210.14 145.5 208.5Z" fill="#0B0B0B"/>
<path fill-rule="evenodd" clip-rule="evenodd" d="M211.5 214.5C211.897 213.475 212.563 213.308 213.5 214C245.842 236.669 281.842 248.335 321.5 249C298.691 267.491 281.525 290.324 270 317.5C266.337 326.323 263.17 335.323 260.5 344.5C258.446 329.454 256.113 314.454 253.5 299.5C211.896 320.924 205.063 350.591 233 388.5C252.842 413.333 277.675 431.166 307.5 442C286.262 444.627 265.929 441.294 246.5 432C216.928 419.084 192.761 399.584 174 373.5C157.494 346.114 158.828 319.78 178 294.5C184.531 287.635 191.364 281.135 198.5 275C210.359 266.571 222.692 258.904 235.5 252C227.856 239.198 219.856 226.698 211.5 214.5Z" fill="#D78E04"/>
<path fill-rule="evenodd" clip-rule="evenodd" d="M75.4998 244.5C80.8729 247.705 80.7062 250.705 74.9998 253.5C70.3861 249.967 70.5527 246.967 75.4998 244.5Z" fill="#0C0C0C"/>
<path fill-rule="evenodd" clip-rule="evenodd" d="M89.5 247.5C97.0172 247.37 104.017 249.203 110.5 253C116.165 258.002 116.999 263.835 113 270.5C111.58 272.422 109.747 273.755 107.5 274.5C111.527 282.891 110.527 290.725 104.5 298C108.578 303.006 108.244 307.839 103.5 312.5C106.197 316.724 107.197 321.391 106.5 326.5C122.336 328.456 127.336 337.123 121.5 352.5C116.632 345.948 111.632 339.448 106.5 333C105.092 332.685 103.759 333.018 102.5 334C100.65 336.018 98.6499 337.851 96.5 339.5C92.564 338.046 89.2307 335.88 86.5 333C87.608 330.888 89.108 329.054 91 327.5C93 323.5 93 319.5 91 315.5C89.3523 314.283 87.519 313.45 85.5 313C84.1667 311.667 84.1667 310.333 85.5 309C92.6686 309.336 95.0019 306.17 92.5 299.5C90.6115 298.396 88.9448 297.063 87.5 295.5C89.8333 294.167 92.1667 292.833 94.5 291.5C90.3213 287.143 87.1546 282.143 85 276.5C84.0441 272.428 84.5441 268.595 86.5 265C88.1992 264.042 90.0326 263.542 92 263.5C94.8813 264.028 97.7146 264.694 100.5 265.5C100.548 262.687 101.215 260.021 102.5 257.5C101.667 257.167 100.833 256.833 100 256.5C97.5324 257.503 95.0324 258.003 92.5 258C89.8115 255.17 87.8115 252.004 86.5 248.5C87.791 248.737 88.791 248.404 89.5 247.5Z" fill="#060606"/>
<path fill-rule="evenodd" clip-rule="evenodd" d="M433.5 253.5C480.801 255.069 520.634 273.069 553 307.5C587.756 349.817 583.59 387.984 540.5 422C528.641 430.429 516.308 438.096 503.5 445C510.589 457.09 518.089 468.924 526 480.5C526.688 481.332 526.521 481.998 525.5 482.5C492.882 460.684 456.882 449.184 417.5 448C439.749 430.029 456.582 407.863 468 381.5C471.727 372.319 475.061 362.985 478 353.5C479.117 354.949 479.784 356.616 480 358.5C481.721 371.549 483.721 384.549 486 397.5C522.765 379.873 531.432 353.206 512 317.5C492.016 287.916 465.182 267.082 431.5 255C432.416 254.722 433.082 254.222 433.5 253.5Z" fill="#D78E05"/>
<path fill-rule="evenodd" clip-rule="evenodd" d="M94.4997 272.5C95.4997 272.5 96.4997 272.5 97.4997 272.5C97.9363 277.361 97.4363 282.028 95.9997 286.5C92.2956 281.998 91.7956 277.331 94.4997 272.5Z" fill="#EEEEEE"/>
<path fill-rule="evenodd" clip-rule="evenodd" d="M611.5 272.5C612.873 272.343 614.207 272.51 615.5 273C619.969 278.386 625.302 282.553 631.5 285.5C634.269 283.559 636.603 281.059 638.5 278C642.655 277.87 646.655 278.704 650.5 280.5C647.181 284.626 646.014 289.292 647 294.5C648.887 296.886 651.387 298.053 654.5 298C655.337 299.011 655.67 300.178 655.5 301.5C649.349 302.103 648.016 304.936 651.5 310C653.134 310.494 654.801 310.66 656.5 310.5C656.759 313.48 655.426 315.313 652.5 316C649.9 318.459 649.9 320.959 652.5 323.5C654.497 322.253 656.497 321.419 658.5 321C661.21 322.46 661.876 324.46 660.5 327C653.708 329.097 647.042 328.764 640.5 326C635.743 322.089 635.41 317.922 639.5 313.5C635.027 310.194 634.36 306.194 637.5 301.5C634.152 299.471 632.485 296.471 632.5 292.5C626.996 292.638 621.662 291.805 616.5 290C613.834 284.509 612.167 278.676 611.5 272.5Z" fill="#060606"/>
<path fill-rule="evenodd" clip-rule="evenodd" d="M675.5 304.5C681.018 306.825 681.518 309.825 677 313.5C673.054 311.143 672.554 308.143 675.5 304.5Z" fill="#151515"/>
<path fill-rule="evenodd" clip-rule="evenodd" d="M116.5 307.5C122.406 309.44 122.74 311.94 117.5 315C121.492 317.902 121.158 320.402 116.5 322.5C115.352 320.851 114.019 319.351 112.5 318C114.061 317.059 115.395 315.892 116.5 314.5C115.5 313.167 114.5 311.833 113.5 310.5C114.77 309.712 115.77 308.712 116.5 307.5Z" fill="#131313"/>
<path fill-rule="evenodd" clip-rule="evenodd" d="M667.5 300.5C672.794 302.216 673.794 305.383 670.5 310C674.43 313.133 674.43 316.299 670.5 319.5C669.167 317.833 667.833 316.167 666.5 314.5C669.267 311.214 668.934 308.214 665.5 305.5C666.456 303.925 667.123 302.258 667.5 300.5Z" fill="#141414"/>
<path fill-rule="evenodd" clip-rule="evenodd" d="M491.5 311.5C493.067 314.917 493.567 318.583 493 322.5C486.365 313.645 479.365 313.312 472 321.5C469.639 329.582 470.639 337.249 475 344.5C483.253 350.507 490.253 349.174 496 340.5C494.986 345.515 491.82 348.682 486.5 350C472.194 353.018 463.86 347.351 461.5 333C462.633 321.367 468.966 314.867 480.5 313.5C483.812 314.379 487.145 314.546 490.5 314C491.252 313.329 491.586 312.496 491.5 311.5Z" fill="#90610C"/>
<path fill-rule="evenodd" clip-rule="evenodd" d="M436.5 320.5C438.067 323.917 438.567 327.583 438 331.5C431.365 322.645 424.365 322.312 417 330.5C414.639 338.582 415.639 346.249 420 353.5C428.253 359.507 435.253 358.174 441 349.5C439.986 354.515 436.82 357.682 431.5 359C417.194 362.018 408.86 356.351 406.5 342C407.633 330.367 413.966 323.867 425.5 322.5C428.812 323.379 432.145 323.546 435.5 323C436.252 322.329 436.586 321.496 436.5 320.5Z" fill="#90610C"/>
<path fill-rule="evenodd" clip-rule="evenodd" d="M367.5 331.501C378.063 329.909 382.897 334.242 382 344.501C380.833 347.001 379 348.834 376.5 350.001C381.264 355.44 386.598 360.106 392.5 364.001C388.527 364.999 384.527 365.332 380.5 365.001C375.985 360.319 371.319 355.819 366.5 351.501C365.565 355.827 365.732 360.161 367 364.501C368.44 366.047 370.273 366.88 372.5 367.001C367.172 368.113 361.838 368.78 356.5 369.001C357.72 367.476 358.387 365.642 358.5 363.501C357.432 354.428 355.932 345.428 354 336.501C352.933 335.81 351.766 335.31 350.5 335.001C356.386 334.247 362.053 333.081 367.5 331.501Z" fill="#90610B"/>
<path fill-rule="evenodd" clip-rule="evenodd" d="M363.5 333.5C373.762 333.86 376.762 338.693 372.5 348C369.978 349.341 367.311 350.174 364.5 350.5C363.239 344.793 362.905 339.126 363.5 333.5Z" fill="#F7F4F0"/>
<path fill-rule="evenodd" clip-rule="evenodd" d="M325.5 338.5C327.199 338.34 328.866 338.506 330.5 339C329.584 339.374 328.75 339.874 328 340.5C327.833 342.167 327.667 343.833 327.5 345.5C329.111 355.156 330.278 364.823 331 374.5C321.478 366.401 312.145 358.068 303 349.5C303.567 357.904 304.9 366.237 307 374.5C308.491 376.004 310.324 376.837 312.5 377C309.166 377.781 305.833 378.114 302.5 378C304.028 376.352 304.695 374.352 304.5 372C303.293 364.175 302.126 356.342 301 348.5C300.07 346.448 298.57 344.948 296.5 344C300.912 342.503 305.245 342.503 309.5 344C315.31 349.733 321.31 355.233 327.5 360.5C327.833 360.333 328.167 360.167 328.5 360C327.294 354.204 326.128 348.371 325 342.5C323.509 340.996 321.676 340.163 319.5 340C321.708 339.809 323.708 339.309 325.5 338.5Z" fill="#90610D"/>
<path fill-rule="evenodd" clip-rule="evenodd" d="M451.5 346.5C456.984 346.481 458.65 348.981 456.5 354C449.745 354.756 448.078 352.256 451.5 346.5Z" fill="#8F6007"/>
<path fill-rule="evenodd" clip-rule="evenodd" d="M268.5 347.5C270.527 347.338 272.527 347.505 274.5 348C273.374 351.744 273.207 355.577 274 359.5C275 365.5 276 371.5 277 377.5C277.273 379.329 278.107 380.829 279.5 382C274.563 383.435 269.563 384.102 264.5 384C267.295 383.703 268.961 382.203 269.5 379.5C268.507 375.209 267.84 370.876 267.5 366.5C263.186 367.275 258.853 367.941 254.5 368.5C254.822 373.587 255.655 378.587 257 383.5C258.399 384.227 259.899 384.727 261.5 385C256.482 386.005 251.482 386.672 246.5 387C247.804 386.196 248.471 385.029 248.5 383.5C246.859 373.796 245.026 364.129 243 354.5C241.933 353.809 240.766 353.309 239.5 353C244.518 351.995 249.518 351.328 254.5 351C252.59 351.408 251.59 352.575 251.5 354.5C252.556 358.444 253.223 362.444 253.5 366.5C257.824 366.073 262.158 365.739 266.5 365.5C266.42 360.684 265.586 356.017 264 351.5C262.266 350.751 260.433 350.251 258.5 350C261.991 349.262 265.325 348.429 268.5 347.5Z" fill="#906009"/>
<path fill-rule="evenodd" clip-rule="evenodd" d="M676.5 372.5C671.44 372.492 666.44 372.326 661.5 372C663.407 373.122 665.407 373.955 667.5 374.5C669.807 375.653 672.14 376.82 674.5 378C675.38 379.356 675.714 380.856 675.5 382.5C670.848 381.672 666.848 379.505 663.5 376C662.833 375.333 662.167 375.333 661.5 376C664.568 379.397 667.235 383.064 669.5 387C668.941 389.188 667.607 389.854 665.5 389C662.954 385.41 660.787 381.577 659 377.5C659.291 382.144 659.291 386.811 659 391.5C657.667 392.833 656.333 392.833 655 391.5C654.607 386.799 654.607 382.132 655 377.5C653.349 380.802 651.682 384.136 650 387.5C646.621 390.49 644.955 389.824 645 385.5C647.5 382.333 650 379.167 652.5 376C648.76 377.022 645.426 379.022 642.5 382C638.339 383.174 637.005 381.841 638.5 378C643.167 376 647.833 374 652.5 372C648.174 372.082 643.84 372.582 639.5 373.5C635.976 372.95 634.976 371.116 636.5 368C640.826 368.093 645.159 368.093 649.5 368C645.952 366.059 642.286 364.393 638.5 363C636.937 360.524 637.604 359.024 640.5 358.5C644.133 360.691 647.8 362.524 651.5 364C649.333 361.167 647.167 358.333 645 355.5C644.955 351.176 646.621 350.51 650 353.5C651.941 357.048 653.607 360.714 655 364.5C655.453 360.823 655.286 357.156 654.5 353.5C653.841 349.313 655.341 347.98 659 349.5C659.167 350.667 659.333 351.833 659.5 353C657.695 366.521 659.195 366.688 664 353.5C667.379 350.51 669.045 351.176 669 355.5C666.5 358.667 664 361.833 661.5 365C662.167 365.667 662.833 365.667 663.5 365C666.682 361.103 670.682 359.103 675.5 359C676.833 360.333 676.833 361.667 675.5 363C670.833 365 666.167 367 661.5 369C666.772 368.236 672.105 367.903 677.5 368C679.043 370.045 678.71 371.545 676.5 372.5Z" fill="#131313"/>
<path fill-rule="evenodd" clip-rule="evenodd" d="M397.5 355.5C402.984 355.481 404.65 357.981 402.5 363C395.745 363.756 394.078 361.256 397.5 355.5Z" fill="#8F6007"/>
<path fill-rule="evenodd" clip-rule="evenodd" d="M114.5 380.5C109.44 380.492 104.44 380.326 99.4997 380C101.407 381.122 103.407 381.955 105.5 382.5C107.807 383.653 110.14 384.82 112.5 386C113.38 387.356 113.714 388.856 113.5 390.5C108.848 389.672 104.848 387.505 101.5 384C100.833 383.333 100.167 383.333 99.4997 384C102.568 387.397 105.235 391.064 107.5 395C106.941 397.188 105.607 397.854 103.5 397C100.954 393.41 98.7866 389.577 96.9997 385.5C97.291 390.144 97.291 394.811 96.9997 399.5C95.6664 400.833 94.333 400.833 92.9997 399.5C92.6065 394.799 92.6065 390.132 92.9997 385.5C91.3486 388.802 89.6819 392.136 87.9997 395.5C84.6211 398.49 82.9544 397.824 82.9997 393.5C85.4997 390.333 87.9997 387.167 90.4997 384C86.7594 385.022 83.4261 387.022 80.4997 390C76.3382 391.174 75.0049 389.841 76.4997 386C81.1664 384 85.833 382 90.4997 380C86.1735 380.082 81.8401 380.582 77.4997 381.5C73.9758 380.95 72.9758 379.116 74.4997 376C78.8258 376.093 83.1592 376.093 87.4997 376C83.952 374.059 80.2854 372.393 76.4997 371C74.9369 368.524 75.6035 367.024 78.4997 366.5C82.1328 368.691 85.7994 370.524 89.4997 372C87.333 369.167 85.1664 366.333 82.9997 363.5C82.9544 359.176 84.6211 358.51 87.9997 361.5C89.9404 365.048 91.6071 368.714 92.9997 372.5C93.4522 368.823 93.2855 365.156 92.4997 361.5C91.8404 357.313 93.3404 355.98 96.9997 357.5C97.1664 358.667 97.333 359.833 97.4997 361C95.6943 374.521 97.1943 374.688 102 361.5C105.379 358.51 107.045 359.176 107 363.5C104.5 366.667 102 369.833 99.4997 373C100.167 373.667 100.833 373.667 101.5 373C104.682 369.103 108.682 367.103 113.5 367C114.833 368.333 114.833 369.667 113.5 371C108.833 373 104.167 375 99.4997 377C104.772 376.236 110.105 375.903 115.5 376C117.043 378.045 116.71 379.545 114.5 380.5Z" fill="#131313"/>
<path fill-rule="evenodd" clip-rule="evenodd" d="M343.5 364.5C348.984 364.481 350.65 366.981 348.5 372C341.745 372.756 340.078 370.256 343.5 364.5Z" fill="#8F6007"/>
<path fill-rule="evenodd" clip-rule="evenodd" d="M655.5 369.5C656.675 369.281 657.675 369.614 658.5 370.5C656.948 371.798 655.948 371.465 655.5 369.5Z" fill="#CDCDCD"/>
<path fill-rule="evenodd" clip-rule="evenodd" d="M676.5 372.5C673.5 373.167 670.5 373.833 667.5 374.5C665.407 373.955 663.407 373.122 661.5 372C666.44 372.326 671.44 372.492 676.5 372.5Z" fill="#A0A0A0"/>
<path fill-rule="evenodd" clip-rule="evenodd" d="M289.5 373.5C294.984 373.481 296.65 375.981 294.5 381C287.745 381.756 286.078 379.256 289.5 373.5Z" fill="#8F6007"/>
<path fill-rule="evenodd" clip-rule="evenodd" d="M93.5 377.5C94.675 377.281 95.675 377.614 96.5 378.5C94.9483 379.798 93.9483 379.465 93.5 377.5Z" fill="#CDCDCD"/>
<path fill-rule="evenodd" clip-rule="evenodd" d="M114.5 380.5C111.5 381.167 108.5 381.833 105.5 382.5C103.407 381.955 101.407 381.122 99.5 380C104.44 380.326 109.44 380.492 114.5 380.5Z" fill="#A0A0A0"/>
<path fill-rule="evenodd" clip-rule="evenodd" d="M639.5 402.5C645.164 401.888 649.998 403.554 654 407.5C656.153 420.341 650.653 425.508 637.5 423C631.975 420.081 630.142 415.581 632 409.5C634.015 406.588 636.515 404.255 639.5 402.5Z" fill="#141414"/>
<path fill-rule="evenodd" clip-rule="evenodd" d="M634.5 409.5C639.93 409.161 645.264 409.661 650.5 411C653.954 416.23 652.454 418.397 646 417.5C641.696 417.591 637.696 416.591 634 414.5C633.36 412.735 633.527 411.068 634.5 409.5Z" fill="#F4F4F4"/>
<path fill-rule="evenodd" clip-rule="evenodd" d="M114.5 415.5C116.897 420.195 118.397 425.195 119 430.5C117.874 429.056 116.374 428.39 114.5 428.5C111.821 428.936 109.155 429.436 106.5 430C104.717 431.067 104.217 432.567 105 434.5C105.667 436.5 106.333 438.5 107 440.5C107.561 441.022 108.228 441.355 109 441.5C112.463 440.208 115.963 439.041 119.5 438C120.191 436.933 120.691 435.766 121 434.5C123.259 438.649 124.592 442.983 125 447.5C122.599 446.398 120.099 446.231 117.5 447C110.44 449.181 103.44 451.514 96.5 454C95.8095 455.067 95.3095 456.234 95 457.5C92.6806 452.217 91.0139 446.884 90 441.5C90.6797 443.513 92.013 444.846 94 445.5C97.8088 444.09 101.642 442.756 105.5 441.5C104.091 438.273 103.091 434.94 102.5 431.5C98.3776 431.697 94.3776 432.53 90.5 434C89.1509 434.772 88.3176 435.939 88 437.5C85.8159 432.3 84.4826 426.966 84 421.5C84.7339 423.736 86.2339 425.069 88.5 425.5C96.8809 423.857 105.214 422.024 113.5 420C114.38 418.644 114.714 417.144 114.5 415.5Z" fill="#0B0B0B"/>
<path fill-rule="evenodd" clip-rule="evenodd" d="M616.5 424.5C619.815 425.329 623.148 426.162 626.5 427C617.548 428.785 614.048 433.952 616 442.5C622.283 448.594 629.783 451.094 638.5 450C645.517 445.748 647.184 439.915 643.5 432.5C644.167 431.167 644.833 431.167 645.5 432.5C648.772 449.713 641.772 458.213 624.5 458C614.212 453.927 610.379 446.427 613 435.5C614.3 432.705 615.8 430.039 617.5 427.5C616.873 426.583 616.539 425.583 616.5 424.5Z" fill="#0B0B0B"/>
<path fill-rule="evenodd" clip-rule="evenodd" d="M104.5 472.5C101.572 471.409 99.4054 469.409 97.9999 466.5C97.8354 462.023 100.002 460.523 104.5 462C108.289 464.127 111.789 466.627 115 469.5C117.741 469.054 119.575 467.554 120.5 465C120.333 463.5 119.5 462.667 118 462.5C115.851 464.458 113.518 464.791 111 463.5C111.259 458.44 113.759 457.274 118.5 460C122.663 462.821 124.163 466.655 123 471.5C118.861 474.486 114.361 476.82 109.5 478.5C108.614 479.325 108.281 480.325 108.5 481.5C103.018 480.211 101.685 477.211 104.5 472.5Z" fill="#0D0D0D"/>
<path fill-rule="evenodd" clip-rule="evenodd" d="M104.5 472.5C102.865 469.765 103.531 467.765 106.5 466.5C114.216 469.775 113.55 471.775 104.5 472.5Z" fill="#E1E1E1"/>
<path fill-rule="evenodd" clip-rule="evenodd" d="M608.5 475.5C610.857 475.337 613.19 475.503 615.5 476C620.06 478.13 624.726 479.964 629.5 481.5C628.42 483.996 627.086 486.33 625.5 488.5C621.494 485.495 617.16 482.995 612.5 481C610.051 480.225 608.384 481.058 607.5 483.5C607.919 484.672 608.585 485.672 609.5 486.5C613.5 488.5 617.5 490.5 621.5 492.5C622.451 491.674 623.451 491.508 624.5 492C622.542 494.748 620.709 497.582 619 500.5C618.751 499.376 618.251 498.376 617.5 497.5C612.058 494.445 606.392 491.945 600.5 490C601.485 486.842 603.485 484.675 606.5 483.5C605.35 480.442 606.017 477.775 608.5 475.5Z" fill="#0B0B0B"/>
<path fill-rule="evenodd" clip-rule="evenodd" d="M127.5 478.5C129.306 480.089 130.639 482.089 131.5 484.5C130.975 485.192 130.308 485.692 129.5 486C136.002 486.99 138.002 490.49 135.5 496.5C137.5 497.333 139.5 498.167 141.5 499C144.034 501.587 144.034 504.253 141.5 507C137.5 509.333 133.5 511.667 129.5 514C128.929 515.205 128.262 516.372 127.5 517.5C125.588 515.343 123.921 513.009 122.5 510.5C128.504 508.169 133.837 504.835 138.5 500.5C136.473 498.661 134.14 498.161 131.5 499C127.102 500.524 123.435 503.024 120.5 506.5C118.588 504.343 116.921 502.009 115.5 499.5C120.615 497.443 125.615 495.109 130.5 492.5C131.395 488.567 129.728 487.067 125.5 488C120.995 489.656 117.161 492.156 114 495.5C112.001 493.507 110.501 491.173 109.5 488.5C115.162 486.003 120.828 483.503 126.5 481C127.252 480.329 127.586 479.496 127.5 478.5Z" fill="#0F0F0F"/>
<path fill-rule="evenodd" clip-rule="evenodd" d="M595.5 498.5C602.208 497.274 607.708 499.274 612 504.5C614.367 508.999 613.533 512.832 609.5 516C602.471 519.037 596.638 517.537 592 511.5C589.348 506.039 590.514 501.706 595.5 498.5Z" fill="#0D0D0D"/>
<path fill-rule="evenodd" clip-rule="evenodd" d="M594.5 501.5C599.525 502.845 604.192 505.012 608.5 508C611.326 510.864 610.826 513.031 607 514.5C601.38 512.464 596.88 509.131 593.5 504.5C593.685 503.416 594.018 502.416 594.5 501.5Z" fill="#EFEFEF"/>
<path fill-rule="evenodd" clip-rule="evenodd" d="M156.5 507.5C158.948 507.01 160.615 507.843 161.5 510C160.831 511.847 159.497 513.014 157.5 513.5C155.261 511.867 154.928 509.867 156.5 507.5Z" fill="#050505"/>
<path fill-rule="evenodd" clip-rule="evenodd" d="M573.5 509.5C577.534 509.67 578.868 511.504 577.5 515C572.728 515.81 571.395 513.977 573.5 509.5Z" fill="#090909"/>
<path fill-rule="evenodd" clip-rule="evenodd" d="M148.5 511.5C150.67 512.838 152.336 514.672 153.5 517C149.341 520.247 145.008 523.247 140.5 526C138.951 527.214 137.785 528.714 137 530.5C135.357 528.023 133.524 525.69 131.5 523.5C136.289 521.272 140.955 518.772 145.5 516C147.439 515.092 148.439 513.592 148.5 511.5Z" fill="#0F0F0F"/>
<path fill-rule="evenodd" clip-rule="evenodd" d="M583.5 514.5C589.284 519.057 595.618 522.557 602.5 525C600.38 527.409 598.38 529.909 596.5 532.5C595.772 530.807 594.772 529.307 593.5 528C589.127 524.814 584.46 522.147 579.5 520C580.665 518.008 581.998 516.175 583.5 514.5Z" fill="#0F0F0F"/>
<path fill-rule="evenodd" clip-rule="evenodd" d="M567.5 523.5C567.56 522.957 567.893 522.624 568.5 522.5C570.167 523.833 571.833 525.167 573.5 526.5C574.591 524.985 575.924 524.152 577.5 524C577.833 524.333 578.167 524.667 578.5 525C575.936 527.276 576.27 529.276 579.5 531C582.69 533.929 586.357 535.762 590.5 536.5C590.469 532.724 591.136 532.557 592.5 536C591.978 540.923 589.311 542.923 584.5 542C580.603 538.469 576.436 535.303 572 532.5C571.667 532.833 571.333 533.167 571 533.5C570.122 529.948 568.956 526.614 567.5 523.5Z" fill="#0F0F0F"/>
<path fill-rule="evenodd" clip-rule="evenodd" d="M172.5 524.5C175.323 525.148 176.823 526.814 177 529.5C169.365 536.059 161.865 542.726 154.5 549.5C153.086 548.376 151.586 547.376 150 546.5C149.383 545.551 149.549 544.718 150.5 544C141.932 539.902 141.265 534.569 148.5 528C153.929 524.565 159.096 524.731 164 528.5C164.333 529.833 164.667 531.167 165 532.5C168.405 530.598 170.905 527.931 172.5 524.5Z" fill="#0E0E0E"/>
<path fill-rule="evenodd" clip-rule="evenodd" d="M158.5 528.5C162.677 527.842 164.177 529.508 163 533.5C159.181 538.398 154.347 540.898 148.5 541C147.328 539.132 147.495 537.298 149 535.5C152.068 532.917 155.235 530.584 158.5 528.5Z" fill="#EFEFEF"/>
<path fill-rule="evenodd" clip-rule="evenodd" d="M564.5 536.5C568.029 535.889 569.862 537.223 570 540.5C569.261 541.574 568.261 542.241 567 542.5C565.433 541.144 563.6 540.477 561.5 540.5C563.13 547.955 567.797 551.455 575.5 551C577.768 549.442 578.934 547.276 579 544.5C579.905 555.576 575.072 559.076 564.5 555C556.674 548.442 556.674 542.276 564.5 536.5Z" fill="#0D0D0D"/>
<path fill-rule="evenodd" clip-rule="evenodd" d="M189.5 540.5C191.797 542.294 193.963 544.294 196 546.5C195.89 553.828 195.89 561.162 196 568.5C199.37 565.465 202.37 562.132 205 558.5C205.72 556.888 205.554 555.388 204.5 554C206.976 554.747 209.309 556.081 211.5 558C209.782 558.346 208.115 558.846 206.5 559.5C200.519 566.648 194.353 573.648 188 580.5C188.13 570.151 188.463 559.818 189 549.5C184.333 554.167 179.667 558.833 175 563.5C174.695 565.557 174.695 567.557 175 569.5C172.78 566.979 170.28 564.812 167.5 563C169.92 563.988 172.253 563.655 174.5 562C179.667 556.833 184.833 551.667 190 546.5C190.49 544.455 190.323 542.455 189.5 540.5Z" fill="#0B0B0B"/>
<path fill-rule="evenodd" clip-rule="evenodd" d="M545.5 552.5C547.857 552.337 550.19 552.503 552.5 553C556.415 557.826 560.749 561.326 565.5 563.5C565.471 565.029 564.804 566.196 563.5 567C561.744 567.202 560.078 567.702 558.5 568.5C557.142 574.588 553.975 575.922 549 572.5C548.075 567.976 548.908 563.809 551.5 560C549.796 557.243 547.462 555.91 544.5 556C543.978 556.561 543.645 557.228 543.5 558C544.833 559.333 546.167 560.667 547.5 562C545.703 565.146 543.536 565.313 541 562.5C540.333 561.167 540.333 559.833 541 558.5C542.332 556.34 543.832 554.34 545.5 552.5Z" fill="#0D0D0D"/>
<path fill-rule="evenodd" clip-rule="evenodd" d="M551.5 561.5C554.069 562.396 556.069 564.062 557.5 566.5C555.547 570.412 553.713 570.412 552 566.5C551.506 564.866 551.34 563.199 551.5 561.5Z" fill="#E0E0E0"/>
<path fill-rule="evenodd" clip-rule="evenodd" d="M533.5 562.5C536.709 563.013 537.709 564.68 536.5 567.5C535.311 568.429 533.978 568.762 532.5 568.5C533.561 574.439 536.561 579.272 541.5 583C539.333 584.5 537.167 586 535 587.5C532.373 580.868 528.207 575.368 522.5 571C524.333 569.833 526.167 568.667 528 567.5C528.667 568.167 529.333 568.833 530 569.5C529.892 566.363 531.059 564.03 533.5 562.5Z" fill="#101010"/>
<path fill-rule="evenodd" clip-rule="evenodd" d="M503.5 570.5C508.691 569.467 512.691 571.134 515.5 575.5C517.093 573.34 518.76 573.173 520.5 575C518.671 576.113 517.837 577.613 518 579.5C520.377 583.088 522.877 586.588 525.5 590C527.409 590.448 528.576 589.615 529 587.5C529.34 592.822 526.84 594.989 521.5 594C515.47 587.682 511.304 580.848 509 573.5C503.317 571.514 500.984 573.514 502 579.5C503.079 581.394 504.413 581.727 506 580.5C511.17 585.577 510.503 586.577 504 583.5C501.812 584.059 501.146 585.393 502 587.5C506.184 588.538 510.35 589.705 514.5 591C517.167 594.333 517.167 597.667 514.5 601C511.815 601.504 509.481 602.67 507.5 604.5C505.732 602.298 504.565 599.965 504 597.5C507.207 601.191 510.374 601.358 513.5 598C513.095 597.055 512.428 596.388 511.5 596C508.211 595.118 504.877 594.452 501.5 594C495.829 589.386 496.162 585.386 502.5 582C498.224 577.56 498.558 573.727 503.5 570.5Z" fill="#111111"/>
<path fill-rule="evenodd" clip-rule="evenodd" d="M206.5 571.5C213.103 569.964 217.437 572.297 219.5 578.5C216.87 582.81 214.203 587.143 211.5 591.5C211.709 592.086 212.043 592.586 212.5 593C207.801 594.713 205.468 593.213 205.5 588.5C202.315 588.98 199.481 588.314 197 586.5C196.175 584.299 196.675 582.466 198.5 581C203.167 580.667 207.833 580.333 212.5 580C214.016 578.103 214.683 575.936 214.5 573.5C213.167 573.5 211.833 573.5 210.5 573.5C210.592 577.071 208.926 578.238 205.5 577C204.243 574.924 204.576 573.09 206.5 571.5Z" fill="#0A0A0A"/>
<path fill-rule="evenodd" clip-rule="evenodd" d="M227.5 581.5C231.24 581.857 234.573 583.19 237.5 585.5C236.333 587.167 235.167 588.833 234 590.5C234.107 587.443 232.94 585.109 230.5 583.5C229.914 583.709 229.414 584.043 229 584.5C230.554 589.319 231.22 594.319 231 599.5C225.298 603.803 220.132 603.136 215.5 597.5C216.174 595.483 217.341 593.817 219 592.5C219.29 594.952 219.956 597.285 221 599.5C222.667 600.833 224.333 600.833 226 599.5C225.19 595.504 224.023 591.504 222.5 587.5C223.465 584.872 225.132 582.872 227.5 581.5Z" fill="#0E0E0E"/>
<path fill-rule="evenodd" clip-rule="evenodd" d="M205.5 581.5C207.288 581.215 208.955 581.548 210.5 582.5C209.139 584.527 207.473 586.194 205.5 587.5C204 587.547 203 586.881 202.5 585.5C203.524 584.148 204.524 582.815 205.5 581.5Z" fill="#DADADA"/>
<path fill-rule="evenodd" clip-rule="evenodd" d="M243.5 608.5C245.167 609.167 246.833 609.833 248.5 610.5C238.268 613.641 234.101 609.974 236 599.5C238.396 593.223 242.896 590.39 249.5 591C254.806 594.06 255.806 598.227 252.5 603.5C249.164 601.982 245.831 600.815 242.5 600C241.892 601.231 241.559 602.564 241.5 604C241.307 606.008 241.974 607.508 243.5 608.5Z" fill="#121212"/>
<path fill-rule="evenodd" clip-rule="evenodd" d="M247.5 592.5C249.252 592.418 250.252 593.251 250.5 595C249.534 599.819 247.2 600.653 243.5 597.5C244.612 595.581 245.946 593.914 247.5 592.5Z" fill="#E3E3E3"/>
<path fill-rule="evenodd" clip-rule="evenodd" d="M484.5 590.5C486.989 590.298 489.323 590.798 491.5 592C494.237 597.329 497.57 602.162 501.5 606.5C498.62 608.285 495.62 609.451 492.5 610C493.517 608.951 493.684 607.784 493 606.5C491.237 601.959 488.737 597.959 485.5 594.5C483.954 595.212 482.954 596.378 482.5 598C484.186 603.059 486.853 607.393 490.5 611C488.421 612.64 486.088 613.806 483.5 614.5C481.627 609.382 479.46 604.382 477 599.5C472.57 596.812 473.237 595.145 479 594.5C479.772 594.645 480.439 594.978 481 595.5C481.997 593.677 483.164 592.01 484.5 590.5Z" fill="#0E0E0E"/>
<path fill-rule="evenodd" clip-rule="evenodd" d="M444.5 595.5C446.431 597.794 447.264 600.461 447 603.5C440.988 596.599 435.655 596.933 431 604.5C430.333 607.5 430.333 610.5 431 613.5C432.028 618.629 434.528 622.795 438.5 626C444.74 627.463 449.24 625.297 452 619.5C451.995 624.306 449.495 627.14 444.5 628C428.252 629.75 421.752 622.583 425 606.5C428.807 599.012 434.973 595.845 443.5 597C444.056 596.617 444.389 596.117 444.5 595.5Z" fill="#0E0E0E"/>
<path fill-rule="evenodd" clip-rule="evenodd" d="M260.5 596.5C262.297 597.73 264.297 598.396 266.5 598.5C266.343 599.873 266.51 601.207 267 602.5C269.934 599.761 272.434 599.927 274.5 603C272.764 606.126 270.597 606.293 268 603.5C266.395 604.101 265.062 605.101 264 606.5C262.091 610.315 260.758 614.315 260 618.5C257.26 617.856 254.76 616.689 252.5 615C257.217 609.732 259.884 603.565 260.5 596.5Z" fill="#0F0F0F"/>
<path fill-rule="evenodd" clip-rule="evenodd" d="M291.5 597.5C291.56 596.957 291.893 596.624 292.5 596.5C296.404 597.976 300.404 599.143 304.5 600C312.61 601.388 315.11 605.888 312 613.5C310.581 614.46 309.081 615.293 307.5 616C306.941 616.725 306.608 617.558 306.5 618.5C307.831 623.338 309.831 627.838 312.5 632C309.023 632.002 305.69 631.168 302.5 629.5C301.228 624.683 299.561 620.016 297.5 615.5C295.348 618.216 294.014 621.383 293.5 625C293.759 626.261 294.426 627.261 295.5 628C290.604 628.073 285.937 627.073 281.5 625C282.833 624.667 284.167 624.333 285.5 624C288.359 616.423 291.026 608.756 293.5 601C293.613 599.301 292.947 598.134 291.5 597.5Z" fill="#0D0D0D"/>
<path fill-rule="evenodd" clip-rule="evenodd" d="M459.5 600.5C468.66 599.328 473.66 603.328 474.5 612.5C474.613 618.208 471.78 621.208 466 621.5C459.186 619.675 455.686 615.175 455.5 608C455.927 604.977 457.261 602.477 459.5 600.5Z" fill="#0F0F0F"/>
<path fill-rule="evenodd" clip-rule="evenodd" d="M300.5 600.5C306.092 601.625 307.926 604.958 306 610.5C304.188 613.821 301.355 615.155 297.5 614.5C298.085 609.745 299.085 605.079 300.5 600.5Z" fill="#ECECEC"/>
<path fill-rule="evenodd" clip-rule="evenodd" d="M460.5 602.5C463.808 601.974 465.974 603.307 467 606.5C468.449 609.732 469.616 613.065 470.5 616.5C470.167 618.167 469.167 619.167 467.5 619.5C465.473 618.307 463.973 616.64 463 614.5C462.03 611.256 460.863 608.09 459.5 605C459.743 604.098 460.077 603.265 460.5 602.5Z" fill="#EBEBEB"/>
<path fill-rule="evenodd" clip-rule="evenodd" d="M399.5 603.5C403.192 602.971 406.358 603.971 409 606.5C409.635 608.635 409.301 610.635 408 612.5C406.365 613.726 404.865 615.059 403.5 616.5C405.817 619.317 408.317 621.984 411 624.5C411.987 621.303 411.487 618.47 409.5 616C412.176 615.26 414.842 614.927 417.5 615C415.019 618.039 413.352 621.539 412.5 625.5C414.295 629.607 416.795 630.273 420 627.5C419.871 631.471 417.704 633.805 413.5 634.5C411.617 633.976 409.784 633.309 408 632.5C403.221 635.541 398.055 636.707 392.5 636C386.714 629.785 387.381 624.285 394.5 619.5C394.91 615.896 395.077 612.229 395 608.5C396.707 606.963 398.207 605.296 399.5 603.5Z" fill="#0F0F0F"/>
<path fill-rule="evenodd" clip-rule="evenodd" d="M398.5 606.5C404.313 606.062 405.98 608.562 403.5 614C402.833 614.667 402.167 614.667 401.5 614C399.307 611.975 398.307 609.475 398.5 606.5Z" fill="#E7E7E7"/>
<path fill-rule="evenodd" clip-rule="evenodd" d="M243.5 608.5C245.857 608.337 248.19 608.503 250.5 609C249.956 609.717 249.289 610.217 248.5 610.5C246.833 609.833 245.167 609.167 243.5 608.5Z" fill="#939393"/>
<path fill-rule="evenodd" clip-rule="evenodd" d="M323.5 613.5C331.003 612.671 334.67 616.005 334.5 623.5C334.892 630.406 331.725 634.406 325 635.5C319.465 634.294 316.632 630.794 316.5 625C317.431 620.252 319.764 616.419 323.5 613.5Z" fill="#161616"/>
<path fill-rule="evenodd" clip-rule="evenodd" d="M325.5 615.5C326.833 615.5 328.167 615.5 329.5 615.5C329.849 621.345 329.016 627.012 327 632.5C325.667 633.833 324.333 633.833 323 632.5C321.892 626.496 322.725 620.829 325.5 615.5Z" fill="#F1F1F1"/>
<path fill-rule="evenodd" clip-rule="evenodd" d="M346.5 615.5C349.914 615.073 352.748 616.073 355 618.5C354.907 624.292 355.741 629.792 357.5 635C355.679 637.137 353.346 637.97 350.5 637.5C350.719 636.325 350.386 635.325 349.5 634.5C346.456 636.538 343.29 636.872 340 635.5C339.333 633.833 339.333 632.167 340 630.5C342.744 627.875 345.911 625.875 349.5 624.5C350.641 622.579 350.808 620.579 350 618.5C348.989 617.663 347.822 617.33 346.5 617.5C346.756 619.792 346.423 621.959 345.5 624C342.77 624.942 341.437 623.942 341.5 621C341.667 620.167 341.833 619.333 342 618.5C343.652 617.601 345.152 616.601 346.5 615.5Z" fill="#0C0C0C"/>
<path fill-rule="evenodd" clip-rule="evenodd" d="M373.5 607.5C375.607 606.532 377.941 606.198 380.5 606.5C380.092 616.268 380.758 625.934 382.5 635.5C380.754 636.395 378.92 637.062 377 637.5C375.848 635.488 374.682 635.322 373.5 637C366.064 638.406 362.397 635.239 362.5 627.5C362.563 619.931 366.23 616.431 373.5 617C374 617.5 374.5 618 375 618.5C375.667 615.167 375.667 611.833 375 608.5C374.617 607.944 374.117 607.611 373.5 607.5Z" fill="#0A0A0A"/>
<path fill-rule="evenodd" clip-rule="evenodd" d="M370.5 617.5C372.371 617.859 373.871 618.859 375 620.5C375.667 624.833 375.667 629.167 375 633.5C372.478 636.326 370.478 635.993 369 632.5C367.955 627.215 368.455 622.215 370.5 617.5Z" fill="#F2F2F2"/>
<path fill-rule="evenodd" clip-rule="evenodd" d="M395.5 620.5C398.724 623.218 401.891 626.218 405 629.5C405.617 630.449 405.451 631.282 404.5 632C396.129 632.437 393.129 628.604 395.5 620.5Z" fill="#EDEDED"/>
<path fill-rule="evenodd" clip-rule="evenodd" d="M348.5 626.5C349.693 626.97 350.36 627.97 350.5 629.5C350.597 632.911 348.93 634.245 345.5 633.5C345.15 630.547 346.15 628.213 348.5 626.5Z" fill="#E3E3E3"/>
</g>
<defs>
<clipPath id="clip0_143_651">
<rect width="745" height="689" fill="white"/>
</clipPath>
</defs>
</svg>
