<?xml version="1.0" encoding="UTF-8"?>
<!DOCTYPE svg PUBLIC "-//W3C//DTD SVG 1.1//EN" "http://www.w3.org/Graphics/SVG/1.1/DTD/svg11.dtd">
<svg xmlns="http://www.w3.org/2000/svg" version="1.1" width="745px" height="689px" style="shape-rendering:geometricPrecision; text-rendering:geometricPrecision; image-rendering:optimizeQuality; fill-rule:evenodd; clip-rule:evenodd" xmlns:xlink="http://www.w3.org/1999/xlink">
<g><path style="opacity:1" fill="#fefefe" d="M -0.5,-0.5 C 247.833,-0.5 496.167,-0.5 744.5,-0.5C 744.5,229.167 744.5,458.833 744.5,688.5C 496.167,688.5 247.833,688.5 -0.5,688.5C -0.5,458.833 -0.5,229.167 -0.5,-0.5 Z"/></g>
<g><path style="opacity:1" fill="#131414" d="M 348.5,11.5 C 468.413,7.25561 565.246,51.9223 639,145.5C 705.99,240.123 721.657,342.79 686,453.5C 649.167,553 581,621.167 481.5,658C 372.809,692.976 271.476,678.309 177.5,614C 83.6374,542.429 37.804,447.263 40,328.5C 46.2028,231.262 86.0361,151.096 159.5,88C 214.559,43.1457 277.559,17.6457 348.5,11.5 Z"/></g>
<g><path style="opacity:1" fill="#fbfbfb" d="M 355.5,21.5 C 473.445,19.3927 567.279,65.3927 637,159.5C 693.747,244.989 708.414,337.322 681,436.5C 650.432,531.732 589.599,599.898 498.5,641C 389.169,683.766 285.503,673.1 187.5,609C 93.2435,539.313 47.4102,445.479 50,327.5C 57.0572,224.858 101.557,143.024 183.5,82C 235.08,45.418 292.414,25.2514 355.5,21.5 Z"/></g>
<g><path style="opacity:1" fill="#060606" d="M 304.5,48.5 C 305.222,48.9175 305.722,49.5842 306,50.5C 306.667,54.1667 306.667,57.8333 306,61.5C 302.7,63.3024 299.533,65.3024 296.5,67.5C 303.575,73.6554 306.075,81.322 304,90.5C 303.535,91.9308 302.701,93.0975 301.5,94C 298.134,95.5664 294.634,96.733 291,97.5C 288.594,97.2971 286.594,96.2971 285,94.5C 284.345,100.474 281.679,101.807 277,98.5C 275.035,102.444 272.035,103.444 268,101.5C 267.426,103.492 266.259,104.992 264.5,106C 257.984,108.954 252.484,107.787 248,102.5C 243.941,93.3811 239.108,84.7144 233.5,76.5C 235.088,72.5899 237.421,69.2565 240.5,66.5C 244.896,75.6257 249.563,84.6257 254.5,93.5C 256.335,94.1916 258.168,93.8583 260,92.5C 260.497,90.1902 260.663,87.8568 260.5,85.5C 261.552,85.3505 262.552,85.5172 263.5,86C 265.556,91.2457 267.89,91.5791 270.5,87C 269.852,85.5603 269.519,84.0603 269.5,82.5C 272.745,82.2934 274.745,83.7934 275.5,87C 276.448,87.4828 277.448,87.6495 278.5,87.5C 278.5,84.8333 278.5,82.1667 278.5,79.5C 279.552,79.3505 280.552,79.5172 281.5,80C 282.68,81.8961 284.18,83.3961 286,84.5C 289.408,83.6494 292.741,82.6494 296,81.5C 296.163,79.6133 295.329,78.1133 293.5,77C 286.34,74.8561 283.006,70.0227 283.5,62.5C 290.357,57.575 297.357,52.9084 304.5,48.5 Z"/></g>
<g><path style="opacity:1" fill="#050505" d="M 366.5,63.5 C 367.117,63.6107 367.617,63.944 368,64.5C 370.548,72.6292 369.381,80.1292 364.5,87C 361.503,87.7554 359.003,86.9221 357,84.5C 353.667,88.5 350.333,88.5 347,84.5C 345.682,87.9414 343.182,89.2747 339.5,88.5C 339.745,94.4554 338.412,99.9554 335.5,105C 330.882,105.994 326.215,106.494 321.5,106.5C 321.351,105.448 321.517,104.448 322,103.5C 326.035,99.7998 329.702,95.7998 333,91.5C 334.018,87.3259 332.518,84.3259 328.5,82.5C 327.027,78.1438 327.694,74.1438 330.5,70.5C 333.576,74.5407 337.576,76.0407 342.5,75C 344.016,73.103 344.683,70.9363 344.5,68.5C 345.552,68.3505 346.552,68.5172 347.5,69C 350.884,76.4887 353.384,76.322 355,68.5C 356.011,67.6634 357.178,67.33 358.5,67.5C 358.373,72.3731 360.706,74.3731 365.5,73.5C 365.523,71.4004 364.856,69.5671 363.5,68C 364.315,66.3566 365.315,64.8566 366.5,63.5 Z"/></g>
<g><path style="opacity:1" fill="#111111" d="M 485.5,63.5 C 488.246,63.9276 489.913,65.5943 490.5,68.5C 488.51,69.4981 486.51,70.4981 484.5,71.5C 480.264,67.8853 480.597,65.2187 485.5,63.5 Z"/></g>
<g><path style="opacity:1" fill="#070707" d="M 399.5,65.5 C 404.133,64.4582 407.299,66.1249 409,70.5C 410.483,82.279 408.316,93.279 402.5,103.5C 397.533,104.662 392.533,104.829 387.5,104C 386.273,102.413 386.606,101.079 388.5,100C 393.723,97.5625 398.39,94.3959 402.5,90.5C 399.407,89.6397 396.573,88.3064 394,86.5C 392.566,78.5646 394.4,71.5646 399.5,65.5 Z"/></g>
<g><path style="opacity:1" fill="#050505" d="M 506.5,71.5 C 507.978,71.238 509.311,71.5713 510.5,72.5C 505.447,81.5914 501.281,90.9247 498,100.5C 499.085,101.293 500.252,101.96 501.5,102.5C 503.65,100.851 505.65,99.0176 507.5,97C 511.909,95.7382 515.743,96.5715 519,99.5C 519.333,103.5 519.667,107.5 520,111.5C 521.954,113.225 524.121,114.558 526.5,115.5C 528.959,113.697 531.626,112.363 534.5,111.5C 533.865,114.493 533.699,117.493 534,120.5C 539.168,125.163 545.001,128.329 551.5,130C 550.084,127.165 548.417,124.498 546.5,122C 544.19,121.503 541.857,121.337 539.5,121.5C 539.33,120.178 539.663,119.011 540.5,118C 546.613,113.252 552.446,113.418 558,118.5C 559.786,125.04 562.619,131.04 566.5,136.5C 562.447,141.385 557.78,142.218 552.5,139C 546.833,138.667 541.167,138.333 535.5,138C 529.509,136.184 525.509,132.35 523.5,126.5C 516.528,128.363 512.695,125.696 512,118.5C 505.464,122.011 501.464,120.011 500,112.5C 495.281,115.327 490.947,114.66 487,110.5C 485.517,107.298 485.183,103.964 486,100.5C 490.633,92.2756 494.3,83.6089 497,74.5C 500.313,73.6802 503.479,72.6802 506.5,71.5 Z"/></g>
<g><path style="opacity:1" fill="#e2e2e2" d="M 399.5,75.5 C 401.681,75.2837 403.347,76.117 404.5,78C 402.833,78.6667 401.167,78.6667 399.5,78C 398.402,77.2303 398.402,76.397 399.5,75.5 Z"/></g>
<g><path style="opacity:1" fill="#080808" d="M 482.5,77.5 C 483.5,77.5 484.5,77.5 485.5,77.5C 486.391,88.3518 482.724,97.1852 474.5,104C 471.442,104.458 468.442,104.124 465.5,103C 462.786,96.1445 457.786,93.1445 450.5,94C 453.352,95.5909 456.352,96.9242 459.5,98C 461.197,107 457.363,112.167 448,113.5C 426.94,112.051 421.607,102.051 432,83.5C 433.11,81.9632 434.61,81.2965 436.5,81.5C 435.063,86.0523 434.563,90.7189 435,95.5C 441.293,101.765 448.793,104.098 457.5,102.5C 453.618,100.929 449.785,99.2622 446,97.5C 444.462,92.8795 445.962,89.7129 450.5,88C 454.167,87.3333 457.833,87.3333 461.5,88C 466.873,89.178 472.207,90.3446 477.5,91.5C 477.145,88.9333 476.479,86.4333 475.5,84C 477.708,81.6223 480.042,79.4557 482.5,77.5 Z"/></g>
<g><path style="opacity:1" fill="#070707" d="M 221.5,86.5 C 223.5,86.8333 225.5,87.1667 227.5,87.5C 228.082,92.5251 226.082,94.1917 221.5,92.5C 220.306,90.4844 220.306,88.4844 221.5,86.5 Z"/></g>
<g><path style="opacity:1" fill="#0a0a0a" d="M 231.5,98.5 C 235.589,99.4119 239.089,101.412 242,104.5C 245.194,109.554 247.861,114.888 250,120.5C 250.667,123.5 250.667,126.5 250,129.5C 246.245,131.628 242.412,133.628 238.5,135.5C 237.28,135.113 236.613,134.28 236.5,133C 238.6,127.533 240.6,122.033 242.5,116.5C 242.471,114.971 241.804,113.804 240.5,113C 233.474,110.872 230.474,106.038 231.5,98.5 Z"/></g>
<g><path style="opacity:1" fill="#161616" d="M 537.5,96.5 C 540.084,97.0483 541.084,98.715 540.5,101.5C 545.537,99.1929 547.871,100.86 547.5,106.5C 545.5,106.5 543.5,106.5 541.5,106.5C 541.67,105.178 541.337,104.011 540.5,103C 536.534,103.143 534.534,101.309 534.5,97.5C 535.791,97.7373 536.791,97.404 537.5,96.5 Z"/></g>
<g><path style="opacity:1" fill="#070707" d="M 202.5,104.5 C 208.624,103.231 213.291,105.231 216.5,110.5C 212.277,111.291 208.777,113.291 206,116.5C 205.51,117.793 205.343,119.127 205.5,120.5C 208.691,119.908 211.691,118.741 214.5,117C 217.85,116.07 220.683,116.903 223,119.5C 231.912,131.789 229.745,141.622 216.5,149C 211.314,151.226 206.314,150.893 201.5,148C 195.45,143.038 191.616,136.871 190,129.5C 190.718,128.549 191.551,128.383 192.5,129C 194.598,131.854 196.931,134.521 199.5,137C 200.873,137.875 202.373,138.375 204,138.5C 211.109,136.362 216.942,132.362 221.5,126.5C 221,126.167 220.5,125.833 220,125.5C 216.396,127.034 212.73,128.368 209,129.5C 207.105,129.385 205.438,128.718 204,127.5C 201.415,122.828 199.915,117.828 199.5,112.5C 199.4,109.376 200.4,106.71 202.5,104.5 Z"/></g>
<g><path style="opacity:1" fill="#ebebeb" d="M 512.5,103.5 C 513.725,104.152 514.392,105.319 514.5,107C 514.873,109.617 513.873,111.45 511.5,112.5C 510.119,112 509.453,111 509.5,109.5C 509.984,107.199 510.984,105.199 512.5,103.5 Z"/></g>
<g><path style="opacity:1" fill="#0a0a0a" d="M 565.5,106.5 C 566.833,106.5 568.167,106.5 569.5,106.5C 569.5,108.833 569.5,111.167 569.5,113.5C 567.167,113.5 564.833,113.5 562.5,113.5C 562.5,111.5 562.5,109.5 562.5,107.5C 563.791,107.737 564.791,107.404 565.5,106.5 Z"/></g>
<g><path style="opacity:1" fill="#131414" d="M 356.5,119.5 C 453.654,116.483 527.821,155.816 579,237.5C 615.651,306.57 618.984,377.237 589,449.5C 551.021,527.767 488.854,573.267 402.5,586C 310.141,593.228 236.641,559.728 182,485.5C 136.298,413.811 129.298,338.477 161,259.5C 200.71,177.386 265.876,130.719 356.5,119.5 Z"/></g>
<g><path style="opacity:1" fill="#050505" d="M 572.5,170.5 C 572.5,168.833 572.5,167.167 572.5,165.5C 570.833,165.5 569.167,165.5 567.5,165.5C 560.414,161.677 558.914,156.344 563,149.5C 569.74,143.43 575.74,136.763 581,129.5C 582.299,128.02 583.966,127.354 586,127.5C 589.707,127.752 593.207,128.585 596.5,130C 588.931,137.401 581.597,144.901 574.5,152.5C 576.98,157.099 580.313,157.766 584.5,154.5C 585.167,154.833 585.833,155.167 586.5,155.5C 585.46,157.523 584.46,159.523 583.5,161.5C 583.608,162.442 583.941,163.275 584.5,164C 587.438,163.554 590.438,163.054 593.5,162.5C 592.977,165.028 591.977,167.361 590.5,169.5C 590.608,170.442 590.941,171.275 591.5,172C 594.636,169.909 598.302,168.743 602.5,168.5C 601.909,171.614 600.242,174.114 597.5,176C 593.302,178.514 588.802,180.347 584,181.5C 582.289,181.561 580.956,180.894 580,179.5C 579.667,177.167 579.333,174.833 579,172.5C 576.14,174.077 573.973,173.41 572.5,170.5 Z"/></g>
<g><path style="opacity:1" fill="#fefefd" d="M 355.5,129.5 C 449.829,125.905 521.663,163.905 571,243.5C 605.691,309.39 608.691,376.724 580,445.5C 541.936,523.191 479.77,567.024 393.5,577C 299.975,580.496 228.809,542.663 180,463.5C 145.789,398.359 142.456,331.692 170,263.5C 198.593,201.906 245.093,160.406 309.5,139C 324.774,134.849 340.107,131.682 355.5,129.5 Z"/></g>
<g><path style="opacity:1" fill="#040404" d="M 165.5,140.5 C 168.196,142.851 170.196,145.851 171.5,149.5C 170.139,151.028 168.972,152.695 168,154.5C 168.895,163.479 166.395,171.312 160.5,178C 158.285,179.044 155.952,179.71 153.5,180C 154.736,186.125 152.069,189.458 145.5,190C 147.589,196.263 145.255,199.597 138.5,200C 140.671,209.794 136.671,214.961 126.5,215.5C 131.793,221.079 131.793,226.579 126.5,232C 121.06,233.174 116.06,232.174 111.5,229C 109.671,227.887 108.837,226.387 109,224.5C 111.432,224.523 113.932,224.19 116.5,223.5C 119.04,220.961 119.874,217.961 119,214.5C 114.233,213.548 109.4,212.715 104.5,212C 103.167,209 101.833,206 100.5,203C 108.137,203.823 115.804,204.49 123.5,205C 125.249,202.914 126.583,200.581 127.5,198C 126.392,195.888 124.892,194.054 123,192.5C 122.399,191.035 122.899,190.035 124.5,189.5C 128.93,192.726 132.263,191.893 134.5,187C 133.015,184.844 131.515,182.677 130,180.5C 128.622,176.102 129.788,172.602 133.5,170C 138.532,170.257 143.532,170.09 148.5,169.5C 152.56,165.708 155.893,161.374 158.5,156.5C 154.93,155.743 151.764,156.743 149,159.5C 148.506,161.134 148.34,162.801 148.5,164.5C 146.089,164.863 144.589,163.863 144,161.5C 142.595,157.928 142.262,154.261 143,150.5C 144.214,148.951 145.714,147.785 147.5,147C 151.943,146.472 156.277,145.472 160.5,144C 162.584,143.303 164.251,142.136 165.5,140.5 Z"/></g>
<g><path style="opacity:1" fill="#909090" d="M 567.5,165.5 C 569.167,165.5 570.833,165.5 572.5,165.5C 572.5,167.167 572.5,168.833 572.5,170.5C 571.566,169.432 571.232,168.099 571.5,166.5C 569.901,166.768 568.568,166.434 567.5,165.5 Z"/></g>
<g><path style="opacity:1" fill="#dfdfdf" d="M 137.5,174.5 C 142.494,173.813 145.494,175.813 146.5,180.5C 141.506,181.187 138.506,179.187 137.5,174.5 Z"/></g>
<g><path style="opacity:1" fill="#050505" d="M 612.5,191.5 C 614.604,191.201 616.604,191.534 618.5,192.5C 616.823,194.676 614.989,196.676 613,198.5C 613.135,207.695 616.635,215.529 623.5,222C 627.067,224.453 630.733,226.62 634.5,228.5C 632.977,230.283 630.977,230.949 628.5,230.5C 629.695,235.222 631.695,239.555 634.5,243.5C 637.595,239.648 639.928,235.315 641.5,230.5C 645.364,228.829 649.364,228.329 653.5,229C 656.879,233.59 660.379,238.09 664,242.5C 666.06,245.286 667.56,248.286 668.5,251.5C 664.738,251.652 661.072,252.319 657.5,253.5C 654.104,249.721 650.937,245.721 648,241.5C 642.844,249.994 635.344,253.494 625.5,252C 618.707,247.248 615.541,240.748 616,232.5C 616.374,231.584 616.874,230.75 617.5,230C 607.065,225.233 600.731,217.233 598.5,206C 600.618,198.715 605.285,193.882 612.5,191.5 Z"/></g>
<g><path style="opacity:1" fill="#050505" d="M 155.5,205.5 C 154.448,207.256 152.781,207.923 150.5,207.5C 149.962,205.883 149.629,204.216 149.5,202.5C 152.32,202.087 154.32,203.087 155.5,205.5 Z"/></g>
<g><path style="opacity:1" fill="#0f0f0f" d="M 628.5,196.5 C 632.648,196.834 634.315,199.167 633.5,203.5C 635.635,203.147 636.968,203.98 637.5,206C 637,207.5 636.5,209 636,210.5C 634.667,209.833 633.333,209.167 632,208.5C 631.798,206.744 631.298,205.078 630.5,203.5C 629.098,203.135 628.098,202.301 627.5,201C 628.148,199.56 628.481,198.06 628.5,196.5 Z"/></g>
<g><path style="opacity:1" fill="#9b9b9b" d="M 155.5,205.5 C 156.404,206.209 156.737,207.209 156.5,208.5C 154.833,208.5 153.167,208.5 151.5,208.5C 149.5,208.5 147.5,208.5 145.5,208.5C 146.919,207.549 148.585,207.216 150.5,207.5C 152.781,207.923 154.448,207.256 155.5,205.5 Z"/></g>
<g><path style="opacity:1" fill="#0b0b0b" d="M 145.5,208.5 C 147.5,208.5 149.5,208.5 151.5,208.5C 152.234,209.708 152.567,211.041 152.5,212.5C 150.856,212.286 149.356,212.62 148,213.5C 147.153,211.807 146.32,210.14 145.5,208.5 Z"/></g>
<g><path style="opacity:1" fill="#d78e04" d="M 211.5,214.5 C 211.897,213.475 212.563,213.308 213.5,214C 245.842,236.669 281.842,248.335 321.5,249C 298.691,267.491 281.525,290.324 270,317.5C 266.337,326.323 263.17,335.323 260.5,344.5C 258.446,329.454 256.113,314.454 253.5,299.5C 211.896,320.924 205.063,350.591 233,388.5C 252.842,413.333 277.675,431.166 307.5,442C 286.262,444.627 265.929,441.294 246.5,432C 216.928,419.084 192.761,399.584 174,373.5C 157.494,346.114 158.828,319.78 178,294.5C 184.531,287.635 191.364,281.135 198.5,275C 210.359,266.571 222.692,258.904 235.5,252C 227.856,239.198 219.856,226.698 211.5,214.5 Z"/></g>
<g><path style="opacity:1" fill="#0c0c0c" d="M 75.5,244.5 C 80.8731,247.705 80.7064,250.705 75,253.5C 70.3863,249.967 70.5529,246.967 75.5,244.5 Z"/></g>
<g><path style="opacity:1" fill="#060606" d="M 89.5,247.5 C 97.0172,247.37 104.017,249.203 110.5,253C 116.165,258.002 116.999,263.835 113,270.5C 111.58,272.422 109.747,273.755 107.5,274.5C 111.527,282.891 110.527,290.725 104.5,298C 108.578,303.006 108.244,307.839 103.5,312.5C 106.197,316.724 107.197,321.391 106.5,326.5C 122.336,328.456 127.336,337.123 121.5,352.5C 116.632,345.948 111.632,339.448 106.5,333C 105.092,332.685 103.759,333.018 102.5,334C 100.65,336.018 98.6499,337.851 96.5,339.5C 92.564,338.046 89.2307,335.88 86.5,333C 87.608,330.888 89.108,329.054 91,327.5C 93,323.5 93,319.5 91,315.5C 89.3523,314.283 87.519,313.45 85.5,313C 84.1667,311.667 84.1667,310.333 85.5,309C 92.6686,309.336 95.0019,306.17 92.5,299.5C 90.6115,298.396 88.9448,297.063 87.5,295.5C 89.8333,294.167 92.1667,292.833 94.5,291.5C 90.3213,287.143 87.1546,282.143 85,276.5C 84.0441,272.428 84.5441,268.595 86.5,265C 88.1992,264.042 90.0326,263.542 92,263.5C 94.8813,264.028 97.7146,264.694 100.5,265.5C 100.548,262.687 101.215,260.021 102.5,257.5C 101.667,257.167 100.833,256.833 100,256.5C 97.5324,257.503 95.0324,258.003 92.5,258C 89.8115,255.17 87.8115,252.004 86.5,248.5C 87.791,248.737 88.791,248.404 89.5,247.5 Z"/></g>
<g><path style="opacity:1" fill="#d78e05" d="M 433.5,253.5 C 480.801,255.069 520.634,273.069 553,307.5C 587.756,349.817 583.59,387.984 540.5,422C 528.641,430.429 516.308,438.096 503.5,445C 510.589,457.09 518.089,468.924 526,480.5C 526.688,481.332 526.521,481.998 525.5,482.5C 492.882,460.684 456.882,449.184 417.5,448C 439.749,430.029 456.582,407.863 468,381.5C 471.727,372.319 475.061,362.985 478,353.5C 479.117,354.949 479.784,356.616 480,358.5C 481.721,371.549 483.721,384.549 486,397.5C 522.765,379.873 531.432,353.206 512,317.5C 492.016,287.916 465.182,267.082 431.5,255C 432.416,254.722 433.082,254.222 433.5,253.5 Z"/></g>
<g><path style="opacity:1" fill="#eeeeee" d="M 94.5,272.5 C 95.5,272.5 96.5,272.5 97.5,272.5C 97.9366,277.361 97.4366,282.028 96,286.5C 92.2959,281.998 91.7959,277.331 94.5,272.5 Z"/></g>
<g><path style="opacity:1" fill="#060606" d="M 611.5,272.5 C 612.873,272.343 614.207,272.51 615.5,273C 619.969,278.386 625.302,282.553 631.5,285.5C 634.269,283.559 636.603,281.059 638.5,278C 642.655,277.87 646.655,278.704 650.5,280.5C 647.181,284.626 646.014,289.292 647,294.5C 648.887,296.886 651.387,298.053 654.5,298C 655.337,299.011 655.67,300.178 655.5,301.5C 649.349,302.103 648.016,304.936 651.5,310C 653.134,310.494 654.801,310.66 656.5,310.5C 656.759,313.48 655.426,315.313 652.5,316C 649.9,318.459 649.9,320.959 652.5,323.5C 654.497,322.253 656.497,321.419 658.5,321C 661.21,322.46 661.876,324.46 660.5,327C 653.708,329.097 647.042,328.764 640.5,326C 635.743,322.089 635.41,317.922 639.5,313.5C 635.027,310.194 634.36,306.194 637.5,301.5C 634.152,299.471 632.485,296.471 632.5,292.5C 626.996,292.638 621.662,291.805 616.5,290C 613.834,284.509 612.167,278.676 611.5,272.5 Z"/></g>
<g><path style="opacity:1" fill="#151515" d="M 675.5,304.5 C 681.018,306.825 681.518,309.825 677,313.5C 673.054,311.143 672.554,308.143 675.5,304.5 Z"/></g>
<g><path style="opacity:1" fill="#131313" d="M 116.5,307.5 C 122.406,309.44 122.74,311.94 117.5,315C 121.492,317.902 121.158,320.402 116.5,322.5C 115.352,320.851 114.019,319.351 112.5,318C 114.061,317.059 115.395,315.892 116.5,314.5C 115.5,313.167 114.5,311.833 113.5,310.5C 114.77,309.712 115.77,308.712 116.5,307.5 Z"/></g>
<g><path style="opacity:1" fill="#141414" d="M 667.5,300.5 C 672.794,302.216 673.794,305.383 670.5,310C 674.43,313.133 674.43,316.299 670.5,319.5C 669.167,317.833 667.833,316.167 666.5,314.5C 669.267,311.214 668.934,308.214 665.5,305.5C 666.456,303.925 667.123,302.258 667.5,300.5 Z"/></g>
<g><path style="opacity:1" fill="#90610c" d="M 491.5,311.5 C 493.067,314.917 493.567,318.583 493,322.5C 486.365,313.645 479.365,313.312 472,321.5C 469.639,329.582 470.639,337.249 475,344.5C 483.253,350.507 490.253,349.174 496,340.5C 494.986,345.515 491.82,348.682 486.5,350C 472.194,353.018 463.86,347.351 461.5,333C 462.633,321.367 468.966,314.867 480.5,313.5C 483.812,314.379 487.145,314.546 490.5,314C 491.252,313.329 491.586,312.496 491.5,311.5 Z"/></g>
<g><path style="opacity:1" fill="#90610c" d="M 436.5,320.5 C 438.067,323.917 438.567,327.583 438,331.5C 431.365,322.645 424.365,322.312 417,330.5C 414.639,338.582 415.639,346.249 420,353.5C 428.253,359.507 435.253,358.174 441,349.5C 439.986,354.515 436.82,357.682 431.5,359C 417.194,362.018 408.86,356.351 406.5,342C 407.633,330.367 413.966,323.867 425.5,322.5C 428.812,323.379 432.145,323.546 435.5,323C 436.252,322.329 436.586,321.496 436.5,320.5 Z"/></g>
<g><path style="opacity:1" fill="#90610b" d="M 367.5,331.5 C 378.063,329.908 382.897,334.241 382,344.5C 380.833,347 379,348.833 376.5,350C 381.264,355.439 386.598,360.105 392.5,364C 388.527,364.998 384.527,365.331 380.5,365C 375.985,360.318 371.319,355.818 366.5,351.5C 365.565,355.826 365.732,360.16 367,364.5C 368.44,366.046 370.273,366.879 372.5,367C 367.172,368.112 361.838,368.779 356.5,369C 357.72,367.475 358.387,365.641 358.5,363.5C 357.432,354.427 355.932,345.427 354,336.5C 352.933,335.809 351.766,335.309 350.5,335C 356.386,334.246 362.053,333.08 367.5,331.5 Z"/></g>
<g><path style="opacity:1" fill="#f7f4f0" d="M 363.5,333.5 C 373.762,333.86 376.762,338.693 372.5,348C 369.978,349.341 367.311,350.174 364.5,350.5C 363.239,344.793 362.905,339.126 363.5,333.5 Z"/></g>
<g><path style="opacity:1" fill="#90610d" d="M 325.5,338.5 C 327.199,338.34 328.866,338.506 330.5,339C 329.584,339.374 328.75,339.874 328,340.5C 327.833,342.167 327.667,343.833 327.5,345.5C 329.111,355.156 330.278,364.823 331,374.5C 321.478,366.401 312.145,358.068 303,349.5C 303.567,357.904 304.9,366.237 307,374.5C 308.491,376.004 310.324,376.837 312.5,377C 309.166,377.781 305.833,378.114 302.5,378C 304.028,376.352 304.695,374.352 304.5,372C 303.293,364.175 302.126,356.342 301,348.5C 300.07,346.448 298.57,344.948 296.5,344C 300.912,342.503 305.245,342.503 309.5,344C 315.31,349.733 321.31,355.233 327.5,360.5C 327.833,360.333 328.167,360.167 328.5,360C 327.294,354.204 326.128,348.371 325,342.5C 323.509,340.996 321.676,340.163 319.5,340C 321.708,339.809 323.708,339.309 325.5,338.5 Z"/></g>
<g><path style="opacity:1" fill="#8f6007" d="M 451.5,346.5 C 456.984,346.481 458.65,348.981 456.5,354C 449.745,354.756 448.078,352.256 451.5,346.5 Z"/></g>
<g><path style="opacity:1" fill="#906009" d="M 268.5,347.5 C 270.527,347.338 272.527,347.505 274.5,348C 273.374,351.744 273.207,355.577 274,359.5C 275,365.5 276,371.5 277,377.5C 277.273,379.329 278.107,380.829 279.5,382C 274.563,383.435 269.563,384.102 264.5,384C 267.295,383.703 268.961,382.203 269.5,379.5C 268.507,375.209 267.84,370.876 267.5,366.5C 263.186,367.275 258.853,367.941 254.5,368.5C 254.822,373.587 255.655,378.587 257,383.5C 258.399,384.227 259.899,384.727 261.5,385C 256.482,386.005 251.482,386.672 246.5,387C 247.804,386.196 248.471,385.029 248.5,383.5C 246.859,373.796 245.026,364.129 243,354.5C 241.933,353.809 240.766,353.309 239.5,353C 244.518,351.995 249.518,351.328 254.5,351C 252.59,351.408 251.59,352.575 251.5,354.5C 252.556,358.444 253.223,362.444 253.5,366.5C 257.824,366.073 262.158,365.739 266.5,365.5C 266.42,360.684 265.586,356.017 264,351.5C 262.266,350.751 260.433,350.251 258.5,350C 261.991,349.262 265.325,348.429 268.5,347.5 Z"/></g>
<g><path style="opacity:1" fill="#131313" d="M 676.5,372.5 C 671.44,372.492 666.44,372.326 661.5,372C 663.407,373.122 665.407,373.955 667.5,374.5C 669.807,375.653 672.14,376.82 674.5,378C 675.38,379.356 675.714,380.856 675.5,382.5C 670.848,381.672 666.848,379.505 663.5,376C 662.833,375.333 662.167,375.333 661.5,376C 664.568,379.397 667.235,383.064 669.5,387C 668.941,389.188 667.607,389.854 665.5,389C 662.954,385.41 660.787,381.577 659,377.5C 659.291,382.144 659.291,386.811 659,391.5C 657.667,392.833 656.333,392.833 655,391.5C 654.607,386.799 654.607,382.132 655,377.5C 653.349,380.802 651.682,384.136 650,387.5C 646.621,390.49 644.955,389.824 645,385.5C 647.5,382.333 650,379.167 652.5,376C 648.76,377.022 645.426,379.022 642.5,382C 638.339,383.174 637.005,381.841 638.5,378C 643.167,376 647.833,374 652.5,372C 648.174,372.082 643.84,372.582 639.5,373.5C 635.976,372.95 634.976,371.116 636.5,368C 640.826,368.093 645.159,368.093 649.5,368C 645.952,366.059 642.286,364.393 638.5,363C 636.937,360.524 637.604,359.024 640.5,358.5C 644.133,360.691 647.8,362.524 651.5,364C 649.333,361.167 647.167,358.333 645,355.5C 644.955,351.176 646.621,350.51 650,353.5C 651.941,357.048 653.607,360.714 655,364.5C 655.453,360.823 655.286,357.156 654.5,353.5C 653.841,349.313 655.341,347.98 659,349.5C 659.167,350.667 659.333,351.833 659.5,353C 657.695,366.521 659.195,366.688 664,353.5C 667.379,350.51 669.045,351.176 669,355.5C 666.5,358.667 664,361.833 661.5,365C 662.167,365.667 662.833,365.667 663.5,365C 666.682,361.103 670.682,359.103 675.5,359C 676.833,360.333 676.833,361.667 675.5,363C 670.833,365 666.167,367 661.5,369C 666.772,368.236 672.105,367.903 677.5,368C 679.043,370.045 678.71,371.545 676.5,372.5 Z"/></g>
<g><path style="opacity:1" fill="#8f6007" d="M 397.5,355.5 C 402.984,355.481 404.65,357.981 402.5,363C 395.745,363.756 394.078,361.256 397.5,355.5 Z"/></g>
<g><path style="opacity:1" fill="#131313" d="M 114.5,380.5 C 109.44,380.492 104.44,380.326 99.5,380C 101.407,381.122 103.407,381.955 105.5,382.5C 107.807,383.653 110.14,384.82 112.5,386C 113.38,387.356 113.714,388.856 113.5,390.5C 108.848,389.672 104.848,387.505 101.5,384C 100.833,383.333 100.167,383.333 99.5,384C 102.568,387.397 105.235,391.064 107.5,395C 106.941,397.188 105.607,397.854 103.5,397C 100.954,393.41 98.7869,389.577 97,385.5C 97.2913,390.144 97.2913,394.811 97,399.5C 95.6667,400.833 94.3333,400.833 93,399.5C 92.6068,394.799 92.6068,390.132 93,385.5C 91.3489,388.802 89.6822,392.136 88,395.5C 84.6214,398.49 82.9547,397.824 83,393.5C 85.5,390.333 88,387.167 90.5,384C 86.7597,385.022 83.4264,387.022 80.5,390C 76.3385,391.174 75.0052,389.841 76.5,386C 81.1667,384 85.8333,382 90.5,380C 86.1738,380.082 81.8404,380.582 77.5,381.5C 73.9761,380.95 72.9761,379.116 74.5,376C 78.8261,376.093 83.1595,376.093 87.5,376C 83.9523,374.059 80.2857,372.393 76.5,371C 74.9372,368.524 75.6038,367.024 78.5,366.5C 82.1331,368.691 85.7997,370.524 89.5,372C 87.3333,369.167 85.1667,366.333 83,363.5C 82.9547,359.176 84.6214,358.51 88,361.5C 89.9407,365.048 91.6074,368.714 93,372.5C 93.4525,368.823 93.2858,365.156 92.5,361.5C 91.8407,357.313 93.3407,355.98 97,357.5C 97.1667,358.667 97.3333,359.833 97.5,361C 95.6946,374.521 97.1946,374.688 102,361.5C 105.379,358.51 107.045,359.176 107,363.5C 104.5,366.667 102,369.833 99.5,373C 100.167,373.667 100.833,373.667 101.5,373C 104.682,369.103 108.682,367.103 113.5,367C 114.833,368.333 114.833,369.667 113.5,371C 108.833,373 104.167,375 99.5,377C 104.772,376.236 110.105,375.903 115.5,376C 117.043,378.045 116.71,379.545 114.5,380.5 Z"/></g>
<g><path style="opacity:1" fill="#8f6007" d="M 343.5,364.5 C 348.984,364.481 350.65,366.981 348.5,372C 341.745,372.756 340.078,370.256 343.5,364.5 Z"/></g>
<g><path style="opacity:1" fill="#cdcdcd" d="M 655.5,369.5 C 656.675,369.281 657.675,369.614 658.5,370.5C 656.948,371.798 655.948,371.465 655.5,369.5 Z"/></g>
<g><path style="opacity:1" fill="#a0a0a0" d="M 676.5,372.5 C 673.5,373.167 670.5,373.833 667.5,374.5C 665.407,373.955 663.407,373.122 661.5,372C 666.44,372.326 671.44,372.492 676.5,372.5 Z"/></g>
<g><path style="opacity:1" fill="#8f6007" d="M 289.5,373.5 C 294.984,373.481 296.65,375.981 294.5,381C 287.745,381.756 286.078,379.256 289.5,373.5 Z"/></g>
<g><path style="opacity:1" fill="#cdcdcd" d="M 93.5,377.5 C 94.675,377.281 95.675,377.614 96.5,378.5C 94.9483,379.798 93.9483,379.465 93.5,377.5 Z"/></g>
<g><path style="opacity:1" fill="#a0a0a0" d="M 114.5,380.5 C 111.5,381.167 108.5,381.833 105.5,382.5C 103.407,381.955 101.407,381.122 99.5,380C 104.44,380.326 109.44,380.492 114.5,380.5 Z"/></g>
<g><path style="opacity:1" fill="#141414" d="M 639.5,402.5 C 645.164,401.888 649.998,403.554 654,407.5C 656.153,420.341 650.653,425.508 637.5,423C 631.975,420.081 630.142,415.581 632,409.5C 634.015,406.588 636.515,404.255 639.5,402.5 Z"/></g>
<g><path style="opacity:1" fill="#f4f4f4" d="M 634.5,409.5 C 639.93,409.161 645.264,409.661 650.5,411C 653.954,416.23 652.454,418.397 646,417.5C 641.696,417.591 637.696,416.591 634,414.5C 633.36,412.735 633.527,411.068 634.5,409.5 Z"/></g>
<g><path style="opacity:1" fill="#0b0b0b" d="M 114.5,415.5 C 116.897,420.195 118.397,425.195 119,430.5C 117.874,429.056 116.374,428.39 114.5,428.5C 111.821,428.936 109.155,429.436 106.5,430C 104.717,431.067 104.217,432.567 105,434.5C 105.667,436.5 106.333,438.5 107,440.5C 107.561,441.022 108.228,441.355 109,441.5C 112.463,440.208 115.963,439.041 119.5,438C 120.191,436.933 120.691,435.766 121,434.5C 123.259,438.649 124.592,442.983 125,447.5C 122.599,446.398 120.099,446.231 117.5,447C 110.44,449.181 103.44,451.514 96.5,454C 95.8095,455.067 95.3095,456.234 95,457.5C 92.6806,452.217 91.0139,446.884 90,441.5C 90.6797,443.513 92.013,444.846 94,445.5C 97.8088,444.09 101.642,442.756 105.5,441.5C 104.091,438.273 103.091,434.94 102.5,431.5C 98.3776,431.697 94.3776,432.53 90.5,434C 89.1509,434.772 88.3176,435.939 88,437.5C 85.8159,432.3 84.4826,426.966 84,421.5C 84.7339,423.736 86.2339,425.069 88.5,425.5C 96.8809,423.857 105.214,422.024 113.5,420C 114.38,418.644 114.714,417.144 114.5,415.5 Z"/></g>
<g><path style="opacity:1" fill="#0b0b0b" d="M 616.5,424.5 C 619.815,425.329 623.148,426.162 626.5,427C 617.548,428.785 614.048,433.952 616,442.5C 622.283,448.594 629.783,451.094 638.5,450C 645.517,445.748 647.184,439.915 643.5,432.5C 644.167,431.167 644.833,431.167 645.5,432.5C 648.772,449.713 641.772,458.213 624.5,458C 614.212,453.927 610.379,446.427 613,435.5C 614.3,432.705 615.8,430.039 617.5,427.5C 616.873,426.583 616.539,425.583 616.5,424.5 Z"/></g>
<g><path style="opacity:1" fill="#0d0d0d" d="M 104.5,472.5 C 101.572,471.409 99.4055,469.409 98,466.5C 97.8355,462.023 100.002,460.523 104.5,462C 108.289,464.127 111.789,466.627 115,469.5C 117.741,469.054 119.575,467.554 120.5,465C 120.333,463.5 119.5,462.667 118,462.5C 115.851,464.458 113.518,464.791 111,463.5C 111.259,458.44 113.759,457.274 118.5,460C 122.663,462.821 124.163,466.655 123,471.5C 118.861,474.486 114.361,476.82 109.5,478.5C 108.614,479.325 108.281,480.325 108.5,481.5C 103.018,480.211 101.685,477.211 104.5,472.5 Z"/></g>
<g><path style="opacity:1" fill="#e1e1e1" d="M 104.5,472.5 C 102.865,469.765 103.531,467.765 106.5,466.5C 114.216,469.775 113.55,471.775 104.5,472.5 Z"/></g>
<g><path style="opacity:1" fill="#0b0b0b" d="M 608.5,475.5 C 610.857,475.337 613.19,475.503 615.5,476C 620.06,478.13 624.726,479.964 629.5,481.5C 628.42,483.996 627.086,486.33 625.5,488.5C 621.494,485.495 617.16,482.995 612.5,481C 610.051,480.225 608.384,481.058 607.5,483.5C 607.919,484.672 608.585,485.672 609.5,486.5C 613.5,488.5 617.5,490.5 621.5,492.5C 622.451,491.674 623.451,491.508 624.5,492C 622.542,494.748 620.709,497.582 619,500.5C 618.751,499.376 618.251,498.376 617.5,497.5C 612.058,494.445 606.392,491.945 600.5,490C 601.485,486.842 603.485,484.675 606.5,483.5C 605.35,480.442 606.017,477.775 608.5,475.5 Z"/></g>
<g><path style="opacity:1" fill="#0f0f0f" d="M 127.5,478.5 C 129.306,480.089 130.639,482.089 131.5,484.5C 130.975,485.192 130.308,485.692 129.5,486C 136.002,486.99 138.002,490.49 135.5,496.5C 137.5,497.333 139.5,498.167 141.5,499C 144.034,501.587 144.034,504.253 141.5,507C 137.5,509.333 133.5,511.667 129.5,514C 128.929,515.205 128.262,516.372 127.5,517.5C 125.588,515.343 123.921,513.009 122.5,510.5C 128.504,508.169 133.837,504.835 138.5,500.5C 136.473,498.661 134.14,498.161 131.5,499C 127.102,500.524 123.435,503.024 120.5,506.5C 118.588,504.343 116.921,502.009 115.5,499.5C 120.615,497.443 125.615,495.109 130.5,492.5C 131.395,488.567 129.728,487.067 125.5,488C 120.995,489.656 117.161,492.156 114,495.5C 112.001,493.507 110.501,491.173 109.5,488.5C 115.162,486.003 120.828,483.503 126.5,481C 127.252,480.329 127.586,479.496 127.5,478.5 Z"/></g>
<g><path style="opacity:1" fill="#0d0d0d" d="M 595.5,498.5 C 602.208,497.274 607.708,499.274 612,504.5C 614.367,508.999 613.533,512.832 609.5,516C 602.471,519.037 596.638,517.537 592,511.5C 589.348,506.039 590.514,501.706 595.5,498.5 Z"/></g>
<g><path style="opacity:1" fill="#efefef" d="M 594.5,501.5 C 599.525,502.845 604.192,505.012 608.5,508C 611.326,510.864 610.826,513.031 607,514.5C 601.38,512.464 596.88,509.131 593.5,504.5C 593.685,503.416 594.018,502.416 594.5,501.5 Z"/></g>
<g><path style="opacity:1" fill="#050505" d="M 156.5,507.5 C 158.948,507.01 160.615,507.843 161.5,510C 160.831,511.847 159.497,513.014 157.5,513.5C 155.261,511.867 154.928,509.867 156.5,507.5 Z"/></g>
<g><path style="opacity:1" fill="#090909" d="M 573.5,509.5 C 577.534,509.67 578.868,511.504 577.5,515C 572.728,515.81 571.395,513.977 573.5,509.5 Z"/></g>
<g><path style="opacity:1" fill="#0f0f0f" d="M 148.5,511.5 C 150.67,512.838 152.336,514.672 153.5,517C 149.341,520.247 145.008,523.247 140.5,526C 138.951,527.214 137.785,528.714 137,530.5C 135.357,528.023 133.524,525.69 131.5,523.5C 136.289,521.272 140.955,518.772 145.5,516C 147.439,515.092 148.439,513.592 148.5,511.5 Z"/></g>
<g><path style="opacity:1" fill="#0f0f0f" d="M 583.5,514.5 C 589.284,519.057 595.618,522.557 602.5,525C 600.38,527.409 598.38,529.909 596.5,532.5C 595.772,530.807 594.772,529.307 593.5,528C 589.127,524.814 584.46,522.147 579.5,520C 580.665,518.008 581.998,516.175 583.5,514.5 Z"/></g>
<g><path style="opacity:1" fill="#0f0f0f" d="M 567.5,523.5 C 567.56,522.957 567.893,522.624 568.5,522.5C 570.167,523.833 571.833,525.167 573.5,526.5C 574.591,524.985 575.924,524.152 577.5,524C 577.833,524.333 578.167,524.667 578.5,525C 575.936,527.276 576.27,529.276 579.5,531C 582.69,533.929 586.357,535.762 590.5,536.5C 590.469,532.724 591.136,532.557 592.5,536C 591.978,540.923 589.311,542.923 584.5,542C 580.603,538.469 576.436,535.303 572,532.5C 571.667,532.833 571.333,533.167 571,533.5C 570.122,529.948 568.956,526.614 567.5,523.5 Z"/></g>
<g><path style="opacity:1" fill="#0e0e0e" d="M 172.5,524.5 C 175.323,525.148 176.823,526.814 177,529.5C 169.365,536.059 161.865,542.726 154.5,549.5C 153.086,548.376 151.586,547.376 150,546.5C 149.383,545.551 149.549,544.718 150.5,544C 141.932,539.902 141.265,534.569 148.5,528C 153.929,524.565 159.096,524.731 164,528.5C 164.333,529.833 164.667,531.167 165,532.5C 168.405,530.598 170.905,527.931 172.5,524.5 Z"/></g>
<g><path style="opacity:1" fill="#efefef" d="M 158.5,528.5 C 162.677,527.842 164.177,529.508 163,533.5C 159.181,538.398 154.347,540.898 148.5,541C 147.328,539.132 147.495,537.298 149,535.5C 152.068,532.917 155.235,530.584 158.5,528.5 Z"/></g>
<g><path style="opacity:1" fill="#0d0d0d" d="M 564.5,536.5 C 568.029,535.889 569.862,537.223 570,540.5C 569.261,541.574 568.261,542.241 567,542.5C 565.433,541.144 563.6,540.477 561.5,540.5C 563.13,547.955 567.797,551.455 575.5,551C 577.768,549.442 578.934,547.276 579,544.5C 579.905,555.576 575.072,559.076 564.5,555C 556.674,548.442 556.674,542.276 564.5,536.5 Z"/></g>
<g><path style="opacity:1" fill="#0b0b0b" d="M 189.5,540.5 C 191.797,542.294 193.963,544.294 196,546.5C 195.89,553.828 195.89,561.162 196,568.5C 199.37,565.465 202.37,562.132 205,558.5C 205.72,556.888 205.554,555.388 204.5,554C 206.976,554.747 209.309,556.081 211.5,558C 209.782,558.346 208.115,558.846 206.5,559.5C 200.519,566.648 194.353,573.648 188,580.5C 188.13,570.151 188.463,559.818 189,549.5C 184.333,554.167 179.667,558.833 175,563.5C 174.695,565.557 174.695,567.557 175,569.5C 172.78,566.979 170.28,564.812 167.5,563C 169.92,563.988 172.253,563.655 174.5,562C 179.667,556.833 184.833,551.667 190,546.5C 190.49,544.455 190.323,542.455 189.5,540.5 Z"/></g>
<g><path style="opacity:1" fill="#0d0d0d" d="M 545.5,552.5 C 547.857,552.337 550.19,552.503 552.5,553C 556.415,557.826 560.749,561.326 565.5,563.5C 565.471,565.029 564.804,566.196 563.5,567C 561.744,567.202 560.078,567.702 558.5,568.5C 557.142,574.588 553.975,575.922 549,572.5C 548.075,567.976 548.908,563.809 551.5,560C 549.796,557.243 547.462,555.91 544.5,556C 543.978,556.561 543.645,557.228 543.5,558C 544.833,559.333 546.167,560.667 547.5,562C 545.703,565.146 543.536,565.313 541,562.5C 540.333,561.167 540.333,559.833 541,558.5C 542.332,556.34 543.832,554.34 545.5,552.5 Z"/></g>
<g><path style="opacity:1" fill="#e0e0e0" d="M 551.5,561.5 C 554.069,562.396 556.069,564.062 557.5,566.5C 555.547,570.412 553.713,570.412 552,566.5C 551.506,564.866 551.34,563.199 551.5,561.5 Z"/></g>
<g><path style="opacity:1" fill="#101010" d="M 533.5,562.5 C 536.709,563.013 537.709,564.68 536.5,567.5C 535.311,568.429 533.978,568.762 532.5,568.5C 533.561,574.439 536.561,579.272 541.5,583C 539.333,584.5 537.167,586 535,587.5C 532.373,580.868 528.207,575.368 522.5,571C 524.333,569.833 526.167,568.667 528,567.5C 528.667,568.167 529.333,568.833 530,569.5C 529.892,566.363 531.059,564.03 533.5,562.5 Z"/></g>
<g><path style="opacity:1" fill="#111111" d="M 503.5,570.5 C 508.691,569.467 512.691,571.134 515.5,575.5C 517.093,573.34 518.76,573.173 520.5,575C 518.671,576.113 517.837,577.613 518,579.5C 520.377,583.088 522.877,586.588 525.5,590C 527.409,590.448 528.576,589.615 529,587.5C 529.34,592.822 526.84,594.989 521.5,594C 515.47,587.682 511.304,580.848 509,573.5C 503.317,571.514 500.984,573.514 502,579.5C 503.079,581.394 504.413,581.727 506,580.5C 511.17,585.577 510.503,586.577 504,583.5C 501.812,584.059 501.146,585.393 502,587.5C 506.184,588.538 510.35,589.705 514.5,591C 517.167,594.333 517.167,597.667 514.5,601C 511.815,601.504 509.481,602.67 507.5,604.5C 505.732,602.298 504.565,599.965 504,597.5C 507.207,601.191 510.374,601.358 513.5,598C 513.095,597.055 512.428,596.388 511.5,596C 508.211,595.118 504.877,594.452 501.5,594C 495.829,589.386 496.162,585.386 502.5,582C 498.224,577.56 498.558,573.727 503.5,570.5 Z"/></g>
<g><path style="opacity:1" fill="#0a0a0a" d="M 206.5,571.5 C 213.103,569.964 217.437,572.297 219.5,578.5C 216.87,582.81 214.203,587.143 211.5,591.5C 211.709,592.086 212.043,592.586 212.5,593C 207.801,594.713 205.468,593.213 205.5,588.5C 202.315,588.98 199.481,588.314 197,586.5C 196.175,584.299 196.675,582.466 198.5,581C 203.167,580.667 207.833,580.333 212.5,580C 214.016,578.103 214.683,575.936 214.5,573.5C 213.167,573.5 211.833,573.5 210.5,573.5C 210.592,577.071 208.926,578.238 205.5,577C 204.243,574.924 204.576,573.09 206.5,571.5 Z"/></g>
<g><path style="opacity:1" fill="#0e0e0e" d="M 227.5,581.5 C 231.24,581.857 234.573,583.19 237.5,585.5C 236.333,587.167 235.167,588.833 234,590.5C 234.107,587.443 232.94,585.109 230.5,583.5C 229.914,583.709 229.414,584.043 229,584.5C 230.554,589.319 231.22,594.319 231,599.5C 225.298,603.803 220.132,603.136 215.5,597.5C 216.174,595.483 217.341,593.817 219,592.5C 219.29,594.952 219.956,597.285 221,599.5C 222.667,600.833 224.333,600.833 226,599.5C 225.19,595.504 224.023,591.504 222.5,587.5C 223.465,584.872 225.132,582.872 227.5,581.5 Z"/></g>
<g><path style="opacity:1" fill="#dadada" d="M 205.5,581.5 C 207.288,581.215 208.955,581.548 210.5,582.5C 209.139,584.527 207.473,586.194 205.5,587.5C 204,587.547 203,586.881 202.5,585.5C 203.524,584.148 204.524,582.815 205.5,581.5 Z"/></g>
<g><path style="opacity:1" fill="#121212" d="M 243.5,608.5 C 245.167,609.167 246.833,609.833 248.5,610.5C 238.268,613.641 234.101,609.974 236,599.5C 238.396,593.223 242.896,590.39 249.5,591C 254.806,594.06 255.806,598.227 252.5,603.5C 249.164,601.982 245.831,600.815 242.5,600C 241.892,601.231 241.559,602.564 241.5,604C 241.307,606.008 241.974,607.508 243.5,608.5 Z"/></g>
<g><path style="opacity:1" fill="#e3e3e3" d="M 247.5,592.5 C 249.252,592.418 250.252,593.251 250.5,595C 249.534,599.819 247.2,600.653 243.5,597.5C 244.612,595.581 245.946,593.914 247.5,592.5 Z"/></g>
<g><path style="opacity:1" fill="#0e0e0e" d="M 484.5,590.5 C 486.989,590.298 489.323,590.798 491.5,592C 494.237,597.329 497.57,602.162 501.5,606.5C 498.62,608.285 495.62,609.451 492.5,610C 493.517,608.951 493.684,607.784 493,606.5C 491.237,601.959 488.737,597.959 485.5,594.5C 483.954,595.212 482.954,596.378 482.5,598C 484.186,603.059 486.853,607.393 490.5,611C 488.421,612.64 486.088,613.806 483.5,614.5C 481.627,609.382 479.46,604.382 477,599.5C 472.57,596.812 473.237,595.145 479,594.5C 479.772,594.645 480.439,594.978 481,595.5C 481.997,593.677 483.164,592.01 484.5,590.5 Z"/></g>
<g><path style="opacity:1" fill="#0e0e0e" d="M 444.5,595.5 C 446.431,597.794 447.264,600.461 447,603.5C 440.988,596.599 435.655,596.933 431,604.5C 430.333,607.5 430.333,610.5 431,613.5C 432.028,618.629 434.528,622.795 438.5,626C 444.74,627.463 449.24,625.297 452,619.5C 451.995,624.306 449.495,627.14 444.5,628C 428.252,629.75 421.752,622.583 425,606.5C 428.807,599.012 434.973,595.845 443.5,597C 444.056,596.617 444.389,596.117 444.5,595.5 Z"/></g>
<g><path style="opacity:1" fill="#0f0f0f" d="M 260.5,596.5 C 262.297,597.73 264.297,598.396 266.5,598.5C 266.343,599.873 266.51,601.207 267,602.5C 269.934,599.761 272.434,599.927 274.5,603C 272.764,606.126 270.597,606.293 268,603.5C 266.395,604.101 265.062,605.101 264,606.5C 262.091,610.315 260.758,614.315 260,618.5C 257.26,617.856 254.76,616.689 252.5,615C 257.217,609.732 259.884,603.565 260.5,596.5 Z"/></g>
<g><path style="opacity:1" fill="#0d0d0d" d="M 291.5,597.5 C 291.56,596.957 291.893,596.624 292.5,596.5C 296.404,597.976 300.404,599.143 304.5,600C 312.61,601.388 315.11,605.888 312,613.5C 310.581,614.46 309.081,615.293 307.5,616C 306.941,616.725 306.608,617.558 306.5,618.5C 307.831,623.338 309.831,627.838 312.5,632C 309.023,632.002 305.69,631.168 302.5,629.5C 301.228,624.683 299.561,620.016 297.5,615.5C 295.348,618.216 294.014,621.383 293.5,625C 293.759,626.261 294.426,627.261 295.5,628C 290.604,628.073 285.937,627.073 281.5,625C 282.833,624.667 284.167,624.333 285.5,624C 288.359,616.423 291.026,608.756 293.5,601C 293.613,599.301 292.947,598.134 291.5,597.5 Z"/></g>
<g><path style="opacity:1" fill="#0f0f0f" d="M 459.5,600.5 C 468.66,599.328 473.66,603.328 474.5,612.5C 474.613,618.208 471.78,621.208 466,621.5C 459.186,619.675 455.686,615.175 455.5,608C 455.927,604.977 457.261,602.477 459.5,600.5 Z"/></g>
<g><path style="opacity:1" fill="#ececec" d="M 300.5,600.5 C 306.092,601.625 307.926,604.958 306,610.5C 304.188,613.821 301.355,615.155 297.5,614.5C 298.085,609.745 299.085,605.079 300.5,600.5 Z"/></g>
<g><path style="opacity:1" fill="#ebebeb" d="M 460.5,602.5 C 463.808,601.974 465.974,603.307 467,606.5C 468.449,609.732 469.616,613.065 470.5,616.5C 470.167,618.167 469.167,619.167 467.5,619.5C 465.473,618.307 463.973,616.64 463,614.5C 462.03,611.256 460.863,608.09 459.5,605C 459.743,604.098 460.077,603.265 460.5,602.5 Z"/></g>
<g><path style="opacity:1" fill="#0f0f0f" d="M 399.5,603.5 C 403.192,602.971 406.358,603.971 409,606.5C 409.635,608.635 409.301,610.635 408,612.5C 406.365,613.726 404.865,615.059 403.5,616.5C 405.817,619.317 408.317,621.984 411,624.5C 411.987,621.303 411.487,618.47 409.5,616C 412.176,615.26 414.842,614.927 417.5,615C 415.019,618.039 413.352,621.539 412.5,625.5C 414.295,629.607 416.795,630.273 420,627.5C 419.871,631.471 417.704,633.805 413.5,634.5C 411.617,633.976 409.784,633.309 408,632.5C 403.221,635.541 398.055,636.707 392.5,636C 386.714,629.785 387.381,624.285 394.5,619.5C 394.91,615.896 395.077,612.229 395,608.5C 396.707,606.963 398.207,605.296 399.5,603.5 Z"/></g>
<g><path style="opacity:1" fill="#e7e7e7" d="M 398.5,606.5 C 404.313,606.062 405.98,608.562 403.5,614C 402.833,614.667 402.167,614.667 401.5,614C 399.307,611.975 398.307,609.475 398.5,606.5 Z"/></g>
<g><path style="opacity:1" fill="#939393" d="M 243.5,608.5 C 245.857,608.337 248.19,608.503 250.5,609C 249.956,609.717 249.289,610.217 248.5,610.5C 246.833,609.833 245.167,609.167 243.5,608.5 Z"/></g>
<g><path style="opacity:1" fill="#161616" d="M 323.5,613.5 C 331.003,612.671 334.67,616.005 334.5,623.5C 334.892,630.406 331.725,634.406 325,635.5C 319.465,634.294 316.632,630.794 316.5,625C 317.431,620.252 319.764,616.419 323.5,613.5 Z"/></g>
<g><path style="opacity:1" fill="#f1f1f1" d="M 325.5,615.5 C 326.833,615.5 328.167,615.5 329.5,615.5C 329.849,621.345 329.016,627.012 327,632.5C 325.667,633.833 324.333,633.833 323,632.5C 321.892,626.496 322.725,620.829 325.5,615.5 Z"/></g>
<g><path style="opacity:1" fill="#0c0c0c" d="M 346.5,615.5 C 349.914,615.073 352.748,616.073 355,618.5C 354.907,624.292 355.741,629.792 357.5,635C 355.679,637.137 353.346,637.97 350.5,637.5C 350.719,636.325 350.386,635.325 349.5,634.5C 346.456,636.538 343.29,636.872 340,635.5C 339.333,633.833 339.333,632.167 340,630.5C 342.744,627.875 345.911,625.875 349.5,624.5C 350.641,622.579 350.808,620.579 350,618.5C 348.989,617.663 347.822,617.33 346.5,617.5C 346.756,619.792 346.423,621.959 345.5,624C 342.77,624.942 341.437,623.942 341.5,621C 341.667,620.167 341.833,619.333 342,618.5C 343.652,617.601 345.152,616.601 346.5,615.5 Z"/></g>
<g><path style="opacity:1" fill="#0a0a0a" d="M 373.5,607.5 C 375.607,606.532 377.941,606.198 380.5,606.5C 380.092,616.268 380.758,625.934 382.5,635.5C 380.754,636.395 378.92,637.062 377,637.5C 375.848,635.488 374.682,635.322 373.5,637C 366.064,638.406 362.397,635.239 362.5,627.5C 362.563,619.931 366.23,616.431 373.5,617C 374,617.5 374.5,618 375,618.5C 375.667,615.167 375.667,611.833 375,608.5C 374.617,607.944 374.117,607.611 373.5,607.5 Z"/></g>
<g><path style="opacity:1" fill="#f2f2f2" d="M 370.5,617.5 C 372.371,617.859 373.871,618.859 375,620.5C 375.667,624.833 375.667,629.167 375,633.5C 372.478,636.326 370.478,635.993 369,632.5C 367.955,627.215 368.455,622.215 370.5,617.5 Z"/></g>
<g><path style="opacity:1" fill="#ededed" d="M 395.5,620.5 C 398.724,623.218 401.891,626.218 405,629.5C 405.617,630.449 405.451,631.282 404.5,632C 396.129,632.437 393.129,628.604 395.5,620.5 Z"/></g>
<g><path style="opacity:1" fill="#e3e3e3" d="M 348.5,626.5 C 349.693,626.97 350.36,627.97 350.5,629.5C 350.597,632.911 348.93,634.245 345.5,633.5C 345.15,630.547 346.15,628.213 348.5,626.5 Z"/></g>
</svg>
